<ttFont>
        <CharString name=".notdef">
          -288 endchar
        </CharString>
        <CharString name="A">
          97 300 693 rmoveto
          -72 -220 -105 -272 -80 -167 rrcurveto
          -9 -17 -2 -1 -16 hvcurveto
          -26 -3 -1 -28 rlineto
          4 45 37 3 36 hhcurveto
          35 31 -3 -4 35 hvcurveto
          1 28 -80 22 63 177 rlineto
          8 87 83 2 36 hhcurveto
          19 hlineto
          56 -203 -69 -6 -1 -28 rlineto
          4 37 42 2 43 hhcurveto
          40 40 -2 -4 33 hvcurveto
          1 28 -83 22 -202 654 rlineto
          -29 -133 rmoveto
          82 -300 rlineto
          -199 hlineto
          103 300 rlineto
          endchar
        </CharString>
        <CharString name="AE">
          305 729 624 rmoveto
          15 -110 rlineto
          29 hlineto
          16 165 rlineto
          -5 -64 -106 -4 -84 hhcurveto
          -51 -115 2 8 -69 hvcurveto
          -1 -28 86 -23 -364 -594 rlineto
          -11 -15 -2 -1 -16 hvcurveto
          -26 -3 -1 -28 rlineto
          4 45 37 3 36 hhcurveto
          35 30 -3 -4 35 hvcurveto
          1 28 -84 21 103 177 rlineto
          8 99 98 3 35 hhcurveto
          -6 -204 rlineto
          -24 -16 -3 -3 -33 hvcurveto
          -1 -28 rlineto
          5 48 36 1 32 hhcurveto
          40 119 -11 -5 137 hvcurveto
          38 159 rlineto
          -30 hlineto
          -50 -103 -220 -8 8 300 40 -3 87 -3 79 -11 rlinecurve
          4 62 -208 -11 5 110 1 47 3 57 5 53 rlinecurve
          -89 hmoveto
          8 hlineto
          -12 -367 rlineto
          -210 hlineto
          endchar
        </CharString>
        <CharString name="Aacute">
          97 300 693 rmoveto
          -72 -220 -105 -272 -80 -167 rrcurveto
          -9 -17 -2 -1 -16 hvcurveto
          -26 -3 -1 -28 rlineto
          4 45 37 3 36 hhcurveto
          35 31 -3 -4 35 hvcurveto
          1 28 -80 22 63 177 rlineto
          8 87 83 2 36 hhcurveto
          19 hlineto
          56 -203 -69 -6 -1 -28 rlineto
          4 37 42 2 43 hhcurveto
          40 40 -2 -4 33 hvcurveto
          1 28 -83 22 -202 654 rlineto
          -29 -133 rmoveto
          82 -300 rlineto
          -199 hlineto
          103 300 rlineto
          19 184 rmoveto
          197 111 -19 15 -16 20 -13 23 rlinecurve
          -167 -147 rlineto
          endchar
        </CharString>
        <CharString name="Acircumflex">
          97 300 693 rmoveto
          -72 -220 -105 -272 -80 -167 rrcurveto
          -9 -17 -2 -1 -16 hvcurveto
          -26 -3 -1 -28 rlineto
          4 45 37 3 36 hhcurveto
          35 31 -3 -4 35 hvcurveto
          1 28 -80 22 63 177 rlineto
          8 87 83 2 36 hhcurveto
          19 hlineto
          56 -203 -69 -6 -1 -28 rlineto
          4 37 42 2 43 hhcurveto
          40 40 -2 -4 33 hvcurveto
          1 28 -83 22 -202 654 rlineto
          -29 -133 rmoveto
          82 -300 rlineto
          -199 hlineto
          103 300 rlineto
          31 271 rmoveto
          142 -87 21 20 -141 131 rlineto
          -40 hlineto
          -150 -131 19 -20 rlineto
          endchar
        </CharString>
        <CharString name="Adieresis">
          97 300 693 rmoveto
          -72 -220 -105 -272 -80 -167 rrcurveto
          -9 -17 -2 -1 -16 hvcurveto
          -26 -3 -1 -28 rlineto
          4 45 37 3 36 hhcurveto
          35 31 -3 -4 35 hvcurveto
          1 28 -80 22 63 177 rlineto
          8 87 83 2 36 hhcurveto
          19 hlineto
          56 -203 -69 -6 -1 -28 rlineto
          4 37 42 2 43 hhcurveto
          40 40 -2 -4 33 hvcurveto
          1 28 -83 22 -202 654 rlineto
          -29 -133 rmoveto
          82 -300 rlineto
          -199 hlineto
          103 300 rlineto
          -10 200 rmoveto
          4 0 5 1 7 vhcurveto
          11 1 17 4 25 vhcurveto
          -16 17 -66 -14 rlineto
          -5 0 -6 -1 -6 vhcurveto
          -12 -2 -17 -3 -25 vhcurveto
          17 -16 rlineto
          235 15 rmoveto
          4 0 5 1 7 vhcurveto
          11 1 17 4 25 vhcurveto
          -17 17 -65 -14 rlineto
          -5 0 -6 -1 -6 vhcurveto
          -12 -2 -17 -3 -25 vhcurveto
          17 -16 rlineto
          endchar
        </CharString>
        <CharString name="Agrave">
          97 300 693 rmoveto
          -72 -220 -105 -272 -80 -167 rrcurveto
          -9 -17 -2 -1 -16 hvcurveto
          -26 -3 -1 -28 rlineto
          4 45 37 3 36 hhcurveto
          35 31 -3 -4 35 hvcurveto
          1 28 -80 22 63 177 rlineto
          8 87 83 2 36 hhcurveto
          19 hlineto
          56 -203 -69 -6 -1 -28 rlineto
          4 37 42 2 43 hhcurveto
          40 40 -2 -4 33 hvcurveto
          1 28 -83 22 -202 654 rlineto
          -29 -133 rmoveto
          82 -300 rlineto
          -199 hlineto
          103 300 rlineto
          57 208 rmoveto
          -175 142 -12 -21 -14 -21 -16 -20 rlinecurve
          198 -104 rlineto
          endchar
        </CharString>
        <CharString name="Aring">
          97 300 693 rmoveto
          -72 -220 -105 -272 -80 -167 rrcurveto
          -9 -17 -2 -1 -16 hvcurveto
          -26 -3 -1 -28 rlineto
          4 45 37 3 36 hhcurveto
          35 31 -3 -4 35 hvcurveto
          1 28 -80 22 63 177 rlineto
          8 87 83 2 36 hhcurveto
          19 hlineto
          56 -203 -69 -6 -1 -28 rlineto
          4 37 42 2 43 hhcurveto
          40 40 -2 -4 33 hvcurveto
          1 28 -83 22 -202 654 rlineto
          -29 -133 rmoveto
          82 -300 rlineto
          -199 hlineto
          103 300 rlineto
          27 342 rmoveto
          40 19 -38 -27 -40 -22 -24 -36 -40 -19 35 29 34 22 31 36 hvcurveto
          -99 -72 rmoveto
          -43 24 -43 68 58 51 45 59 43 -29 39 -62 -67 -43 -49 -51 vhcurveto
          endchar
        </CharString>
        <CharString name="Atilde">
          97 300 693 rmoveto
          -72 -220 -105 -272 -80 -167 rrcurveto
          -9 -17 -2 -1 -16 hvcurveto
          -26 -3 -1 -28 rlineto
          4 45 37 3 36 hhcurveto
          35 31 -3 -4 35 hvcurveto
          1 28 -80 22 63 177 rlineto
          8 87 83 2 36 hhcurveto
          19 hlineto
          56 -203 -69 -6 -1 -28 rlineto
          4 37 42 2 43 hhcurveto
          40 40 -2 -4 33 hvcurveto
          1 28 -83 22 -202 654 rlineto
          -29 -133 rmoveto
          82 -300 rlineto
          -199 hlineto
          103 300 rlineto
          121 188 rmoveto
          93 101 -15 15 -13 -11 -17 -14 -12 -11 rlinecurve
          -22 -20 -58 11 -39 18 -45 27 rlinecurve
          -29 hlineto
          -88 -97 14 -15 47 40 27 24 35 -29 35 -21 56 -18 rlinecurve
          endchar
        </CharString>
        <CharString name="B">
          31 462 540 rmoveto
          75 -46 69 -120 vhcurveto
          -74 -20 -12 -57 hhcurveto
          -27 -22 2 1 -16 hvcurveto
          -27 4 -1 -28 72 -22 -20 -595 rlineto
          -23 -16 -3 -3 -34 hvcurveto
          -1 -28 rlineto
          4 44 35 2 31 55 51 -12 52 hhcurveto
          123 92 79 121 83 -47 61 -108 30 hvcurveto
          49 33 55 59 80 vvcurveto
          -272 -192 rmoveto
          2 18 18 1 17 hhcurveto
          133 57 -74 -97 -97 -58 -61 -83 -51 -36 16 13 -25 hvcurveto
          11 332 rmoveto
          3 82 3 64 6 83 3 37 rlinecurve
          22 8 3 33 hhcurveto
          66 50 -49 -85 -60 -33 -49 -43 -32 hvcurveto
          4 -27 -31 2 -33 hhcurveto
          endchar
        </CharString>
        <CharString name="C">
          168 449 657 rmoveto
          71 56 -23 -24 35 hvcurveto
          13 -108 rlineto
          29 hlineto
          14 163 rlineto
          15 -56 -70 13 -99 hhcurveto
          -232 -165 -153 -215 -198 167 -141 212 55 92 9 35 70 hvcurveto
          -10 28 rlineto
          -24 -71 -38 -7 -63 hhcurveto
          -148 -174 106 219 197 148 108 164 hvcurveto
          endchar
        </CharString>
        <CharString name="Ccedilla">
          168 470 -118 rmoveto
          37 -38 24 -40 16 vhcurveto
          4 28 rlineto
          -1 9 10 0 9 hhcurveto
          55 92 9 35 70 hvcurveto
          -10 28 rlineto
          -24 -71 -38 -7 -63 hhcurveto
          -148 -174 106 219 197 148 108 164 71 56 -23 -24 35 hvcurveto
          13 -108 rlineto
          29 hlineto
          14 163 rlineto
          15 -56 -70 13 -99 hhcurveto
          -232 -165 -153 -215 -165 116 -126 161 -36 hvcurveto
          13 -3 12 -3 13 -2 -11 -69 rcurveline
          36 -16 37 -17 17 -24 rrcurveto
          -29 -11 -22 -9 -24 hhcurveto
          -28 -31 12 11 -23 hvcurveto
          -2 -55 rlineto
          -6 16 17 -3 18 hhcurveto
          62 59 42 55 hvcurveto
          endchar
        </CharString>
        <CharString name="D">
          244 31 hmoveto
          5 52 42 1 20 68 73 -12 61 hhcurveto
          291 84 209 140 204 -138 137 -198 hvcurveto
          -86 -71 -12 -72 hhcurveto
          -29 -25 2 1 -20 hvcurveto
          -30 4 rlineto
          -28 vlineto
          71 -22 -20 -595 rlineto
          -24 -17 -3 -3 -32 hvcurveto
          285 620 rmoveto
          256 58 -172 -144 -272 -209 -34 -98 -53 -56 13 11 -34 hvcurveto
          21 593 rlineto
          3 24 49 2 42 hhcurveto
          endchar
        </CharString>
        <CharString name="E">
          -7 0 38 300 34 267 40 hstem
          188 338 rmoveto
          40 -3 87 -3 79 -11 4 62 rcurveline
          -208 -11 5 110 1 47 3 57 5 53 rlinecurve
          213 -15 15 -110 rlineto
          29 hlineto
          16 165 rlineto
          -5 -64 -43 -2 -53 hhcurveto
          -117 hlineto
          -53 -36 2 1 -24 hvcurveto
          -14 1 -11 2 -9 1 rrcurveto
          -28 vlineto
          71 -22 -20 -595 rlineto
          -24 -17 -3 -3 -32 hvcurveto
          -1 -28 rlineto
          5 48 36 1 32 hhcurveto
          40 119 -11 -5 137 hvcurveto
          38 159 rlineto
          -30 hlineto
          -50 -103 -220 -8 rlineto
          endchar
        </CharString>
        <CharString name="Eacute">
          -7 0 38 300 34 267 40 hstem
          188 338 rmoveto
          40 -3 87 -3 79 -11 4 62 rcurveline
          -208 -11 5 110 1 47 3 57 5 53 rlinecurve
          213 -15 15 -110 rlineto
          29 hlineto
          16 165 rlineto
          -5 -64 -43 -2 -53 hhcurveto
          -117 hlineto
          -53 -36 2 1 -24 hvcurveto
          -14 1 -11 2 -9 1 rrcurveto
          -28 vlineto
          71 -22 -20 -595 rlineto
          -24 -17 -3 -3 -32 hvcurveto
          -1 -28 rlineto
          5 48 36 1 32 hhcurveto
          40 119 -11 -5 137 hvcurveto
          38 159 rlineto
          -30 hlineto
          -50 -103 -220 -8 rlineto
          30 717 rmoveto
          197 111 -19 15 -16 20 -13 23 rlinecurve
          -167 -147 rlineto
          endchar
        </CharString>
        <CharString name="Ecircumflex">
          -7 0 38 300 34 267 40 hstem
          188 338 rmoveto
          40 -3 87 -3 79 -11 4 62 rcurveline
          -208 -11 5 110 1 47 3 57 5 53 rlinecurve
          213 -15 15 -110 rlineto
          29 hlineto
          16 165 rlineto
          -5 -64 -43 -2 -53 hhcurveto
          -117 hlineto
          -53 -36 2 1 -24 hvcurveto
          -14 1 -11 2 -9 1 rrcurveto
          -28 vlineto
          71 -22 -20 -595 rlineto
          -24 -17 -3 -3 -32 hvcurveto
          -1 -28 rlineto
          5 48 36 1 32 hhcurveto
          40 119 -11 -5 137 hvcurveto
          38 159 rlineto
          -30 hlineto
          -50 -103 -220 -8 rlineto
          113 804 rmoveto
          142 -87 21 20 -141 131 rlineto
          -40 hlineto
          -150 -131 19 -20 rlineto
          endchar
        </CharString>
        <CharString name="Edieresis">
          -7 0 38 300 34 267 40 hstem
          188 338 rmoveto
          40 -3 87 -3 79 -11 4 62 rcurveline
          -208 -11 5 110 1 47 3 57 5 53 rlinecurve
          213 -15 15 -110 rlineto
          29 hlineto
          16 165 rlineto
          -5 -64 -43 -2 -53 hhcurveto
          -117 hlineto
          -53 -36 2 1 -24 hvcurveto
          -14 1 -11 2 -9 1 rrcurveto
          -28 vlineto
          71 -22 -20 -595 rlineto
          -24 -17 -3 -3 -32 hvcurveto
          -1 -28 rlineto
          5 48 36 1 32 hhcurveto
          40 119 -11 -5 137 hvcurveto
          38 159 rlineto
          -30 hlineto
          -50 -103 -220 -8 rlineto
          77 733 rmoveto
          4 0 5 1 7 vhcurveto
          11 1 17 4 25 vhcurveto
          -16 17 -66 -14 rlineto
          -5 0 -6 -1 -6 vhcurveto
          -12 -2 -17 -3 -25 vhcurveto
          17 -16 rlineto
          235 15 rmoveto
          4 0 5 1 7 vhcurveto
          11 1 17 4 25 vhcurveto
          -17 17 -65 -14 rlineto
          -5 0 -6 -1 -6 vhcurveto
          -12 -2 -17 -3 -25 vhcurveto
          17 -16 rlineto
          endchar
        </CharString>
        <CharString name="Egrave">
          -7 0 38 300 34 267 40 hstem
          188 338 rmoveto
          40 -3 87 -3 79 -11 4 62 rcurveline
          -208 -11 5 110 1 47 3 57 5 53 rlinecurve
          213 -15 15 -110 rlineto
          29 hlineto
          16 165 rlineto
          -5 -64 -43 -2 -53 hhcurveto
          -117 hlineto
          -53 -36 2 1 -24 hvcurveto
          -14 1 -11 2 -9 1 rrcurveto
          -28 vlineto
          71 -22 -20 -595 rlineto
          -24 -17 -3 -3 -32 hvcurveto
          -1 -28 rlineto
          5 48 36 1 32 hhcurveto
          40 119 -11 -5 137 hvcurveto
          38 159 rlineto
          -30 hlineto
          -50 -103 -220 -8 rlineto
          194 741 rmoveto
          -175 142 -12 -21 -14 -21 -16 -20 rlinecurve
          198 -104 rlineto
          endchar
        </CharString>
        <CharString name="Eth">
          279 66 hmoveto
          5 52 43 1 19 68 74 -12 60 hhcurveto
          291 84 209 140 204 -136 137 -200 hvcurveto
          -85 -73 -12 -71 hhcurveto
          -29 -25 2 1 -19 hvcurveto
          -31 4 rlineto
          -28 vlineto
          71 -22 -9 -257 rlineto
          -145 hlineto
          -2 -50 45 4 51 3 49 3 rlinecurve
          -9 -298 rlineto
          -25 -14 -3 -3 -34 hvcurveto
          286 620 rmoveto
          253 61 -172 -144 -272 -210 -34 -98 -53 -56 13 11 -34 hvcurveto
          10 284 rlineto
          3 76 68 1 35 hhcurveto
          1 34 rlineto
          -179 hlineto
          10 271 rlineto
          3 24 48 2 44 hhcurveto
          endchar
        </CharString>
        <CharString name="Euro">
          124 37 360 rmoveto
          29 3 31 2 36 1 rrcurveto
          -1 -16 -1 -13 -15 vvcurveto
          -18 -96 vlineto
          -2 -50 31 3 34 1 37 3 rlinecurve
          -176 21 119 -99 156 hhcurveto
          45 60 9 35 53 hvcurveto
          -9 28 rlineto
          -24 -53 -27 -7 -45 hhcurveto
          -96 -104 60 178 -27 hvcurveto
          72 3 68 1 52 1 rrcurveto
          86 hlineto
          13 34 rlineto
          -295 hlineto
          -1 15 0 15 17 vvcurveto
          19 vlineto
          79 4 79 0 61 1 rrcurveto
          36 34 0 1 31 hvcurveto
          13 34 rlineto
          -330 hlineto
          157 16 100 90 98 hhcurveto
          49 39 -20 -23 23 hvcurveto
          11 -112 rlineto
          31 hlineto
          13 163 rlineto
          15 -40 -57 13 -59 hhcurveto
          -140 -139 -105 -178 -32 hvcurveto
          -100 hlineto
          endchar
        </CharString>
        <CharString name="F">
          -37 188 329 rmoveto
          40 87 -9 -8 80 hvcurveto
          4 62 -209 -11 5 119 1 47 3 57 5 53 rlinecurve
          213 -15 15 -110 rlineto
          29 hlineto
          16 165 rlineto
          -5 -64 -43 -2 -53 hhcurveto
          -117 hlineto
          -53 -36 2 1 -24 hvcurveto
          -14 1 -11 2 -9 1 rrcurveto
          -28 vlineto
          71 -22 -20 -595 rlineto
          -24 -17 -3 -3 -32 hvcurveto
          -28 vlineto
          5 48 39 2 33 hhcurveto
          33 25 -3 -1 17 hvcurveto
          25 -3 rlineto
          28 vlineto
          -70 22 rlineto
          endchar
        </CharString>
        <CharString name="G">
          229 438 657 rmoveto
          83 49 -23 -24 37 hvcurveto
          12 -108 rlineto
          30 hlineto
          14 163 rlineto
          15 -56 -70 13 -99 hhcurveto
          -227 -165 -139 -220 -221 184 -127 193 62 104 20 21 58 hvcurveto
          9 255 25 3 14 0 34 3 rlinecurve
          28 vlineto
          -5 -48 -40 -2 -33 hhcurveto
          -33 -25 2 1 -16 hvcurveto
          -10 1 -9 2 -7 1 rrcurveto
          -28 vlineto
          72 -22 -9 -213 rlineto
          -19 -35 -34 -8 -59 hhcurveto
          -170 -137 121 187 200 130 123 172 hvcurveto
          endchar
        </CharString>
        <CharString name="H">
          278 530 hmoveto
          5 48 39 2 33 hhcurveto
          33 25 -3 -1 17 hvcurveto
          25 -3 rlineto
          28 vlineto
          -70 22 20 595 22 3 19 0 31 3 rlinecurve
          28 vlineto
          -5 -48 -40 -2 -33 hhcurveto
          -33 -24 2 1 -17 hvcurveto
          -10 1 -8 2 -7 1 rrcurveto
          -28 vlineto
          71 -22 -9 -257 rlineto
          -423 hlineto
          10 273 22 3 19 0 31 3 rlinecurve
          28 vlineto
          -5 -48 -40 -2 -33 hhcurveto
          -33 -24 2 1 -17 hvcurveto
          -10 1 -8 2 -7 1 rrcurveto
          -28 vlineto
          71 -22 -20 -595 rlineto
          -24 -17 -3 -3 -32 hvcurveto
          -28 vlineto
          5 48 39 2 33 hhcurveto
          33 25 -3 -1 17 hvcurveto
          25 -3 rlineto
          28 vlineto
          -71 22 9 272 rlineto
          16 171 237 0 16 hhcurveto
          -10 -304 rlineto
          -24 -16 -3 -3 -33 hvcurveto
          endchar
        </CharString>
        <CharString name="I">
          -221 31 hmoveto
          5 48 39 2 33 hhcurveto
          33 25 -3 -1 17 hvcurveto
          25 -3 rlineto
          28 vlineto
          -70 22 20 595 22 3 19 0 31 3 rlinecurve
          28 vlineto
          -5 -48 -40 -2 -33 hhcurveto
          -33 -24 2 1 -17 hvcurveto
          -10 1 -8 2 -7 1 rrcurveto
          -28 vlineto
          71 -22 -20 -595 rlineto
          -24 -17 -3 -3 -32 hvcurveto
          endchar
        </CharString>
        <CharString name="Iacute">
          -221 31 hmoveto
          5 48 39 2 33 hhcurveto
          33 25 -3 -1 17 hvcurveto
          25 -3 rlineto
          28 vlineto
          -70 22 20 595 22 3 19 0 31 3 rlinecurve
          28 vlineto
          -5 -48 -40 -2 -33 hhcurveto
          -33 -24 2 1 -17 hvcurveto
          -10 1 -8 2 -7 1 rrcurveto
          -28 vlineto
          71 -22 -20 -595 rlineto
          -24 -17 -3 -3 -32 hvcurveto
          110 727 rmoveto
          197 111 -19 15 -16 20 -13 23 rlinecurve
          -167 -147 rlineto
          endchar
        </CharString>
        <CharString name="Icircumflex">
          -221 31 hmoveto
          5 48 39 2 33 hhcurveto
          33 25 -3 -1 17 hvcurveto
          25 -3 rlineto
          28 vlineto
          -70 22 20 595 22 3 19 0 31 3 rlinecurve
          28 vlineto
          -5 -48 -40 -2 -33 hhcurveto
          -33 -24 2 1 -17 hvcurveto
          -10 1 -8 2 -7 1 rrcurveto
          -28 vlineto
          71 -22 -20 -595 rlineto
          -24 -17 -3 -3 -32 hvcurveto
          141 814 rmoveto
          142 -87 21 20 -141 131 rlineto
          -40 hlineto
          -150 -131 19 -20 rlineto
          endchar
        </CharString>
        <CharString name="Idieresis">
          -221 31 hmoveto
          5 48 39 2 33 hhcurveto
          33 25 -3 -1 17 hvcurveto
          25 -3 rlineto
          28 vlineto
          -70 22 20 595 22 3 19 0 31 3 rlinecurve
          28 vlineto
          -5 -48 -40 -2 -33 hhcurveto
          -33 -24 2 1 -17 hvcurveto
          -10 1 -8 2 -7 1 rrcurveto
          -28 vlineto
          71 -22 -20 -595 rlineto
          -24 -17 -3 -3 -32 hvcurveto
          92 743 rmoveto
          4 0 5 1 7 vhcurveto
          11 1 17 4 25 vhcurveto
          -16 17 -66 -14 rlineto
          -5 0 -6 -1 -6 vhcurveto
          -12 -2 -17 -3 -25 vhcurveto
          17 -16 rlineto
          235 15 rmoveto
          4 0 5 1 7 vhcurveto
          11 1 17 4 25 vhcurveto
          -17 17 -65 -14 rlineto
          -5 0 -6 -1 -6 vhcurveto
          -12 -2 -17 -3 -25 vhcurveto
          17 -16 rlineto
          endchar
        </CharString>
        <CharString name="Igrave">
          -221 31 hmoveto
          5 48 39 2 33 hhcurveto
          33 25 -3 -1 17 hvcurveto
          25 -3 rlineto
          28 vlineto
          -70 22 20 595 22 3 19 0 31 3 rlinecurve
          28 vlineto
          -5 -48 -40 -2 -33 hhcurveto
          -33 -24 2 1 -17 hvcurveto
          -10 1 -8 2 -7 1 rrcurveto
          -28 vlineto
          71 -22 -20 -595 rlineto
          -24 -17 -3 -3 -32 hvcurveto
          160 751 rmoveto
          -175 142 -12 -21 -14 -21 -16 -20 rlinecurve
          198 -104 rlineto
          endchar
        </CharString>
        <CharString name="J">
          -232 197 645 rmoveto
          23 3 15 0 35 3 rrcurveto
          28 vlineto
          -5 -49 -40 -2 -33 hhcurveto
          -32 -25 2 1 -17 hvcurveto
          -25 4 rlineto
          -28 vlineto
          71 -22 -20 -579 -3 -36 -31 -112 -108 -121 rlinecurve
          20 -26 193 160 0 100 4 35 rlinecurve
          endchar
        </CharString>
        <CharString name="K">
          131 514 hmoveto
          146 30 hlineto
          -85 20 -289 336 265 243 82 22 rlineto
          28 vlineto
          -5 -37 -38 -2 -35 hhcurveto
          -37 -36 3 4 -29 hvcurveto
          -28 vlineto
          20 -4 12 -1 13 -3 12 -1 rlinecurve
          -66 -90 -89 -88 -112 -106 rrcurveto
          -180 -358 rmoveto
          5 48 39 2 33 hhcurveto
          33 25 -3 -1 17 hvcurveto
          25 -3 rlineto
          28 vlineto
          -70 22 20 595 22 3 19 0 31 3 rlinecurve
          28 vlineto
          -5 -48 -40 -2 -33 hhcurveto
          -33 -24 2 1 -17 hvcurveto
          -10 1 -8 2 -7 1 rrcurveto
          -28 vlineto
          71 -22 -20 -595 rlineto
          -24 -17 -3 -3 -32 hvcurveto
          endchar
        </CharString>
        <CharString name="L">
          -16 104 34 rmoveto
          -24 -17 -3 -3 -32 hvcurveto
          -1 -28 rlineto
          5 48 36 1 32 hhcurveto
          40 128 -11 -5 139 hvcurveto
          45 167 rlineto
          -31 hlineto
          -55 -111 -233 -8 22 607 22 3 19 0 31 3 rlinecurve
          28 vlineto
          -5 -48 -39 -2 -33 hhcurveto
          -33 -25 2 1 -17 hvcurveto
          -10 1 -8 2 -7 1 rrcurveto
          -28 vlineto
          71 -22 rlineto
          endchar
        </CharString>
        <CharString name="M">
          343 747 692 rmoveto
          -49 -10 -257 -534 rlineto
          -7 hlineto
          -236 545 -46 -16 -71 -643 rlineto
          -25 -14 -3 -3 -34 hvcurveto
          -28 vlineto
          5 48 37 2 31 hhcurveto
          29 23 -3 -1 13 hvcurveto
          21 -3 rlineto
          28 vlineto
          -75 22 39 487 rlineto
          8 hlineto
          219 -510 rlineto
          23 hlineto
          249 508 rlineto
          9 hlineto
          2 -501 rlineto
          -25 -14 -3 -3 -34 hvcurveto
          -28 vlineto
          5 48 40 2 33 hhcurveto
          32 25 -3 -1 17 hvcurveto
          26 -3 rlineto
          28 vlineto
          -69 22 rlineto
          endchar
        </CharString>
        <CharString name="N">
          268 98 34 rmoveto
          -23 -19 -1 -5 -31 hvcurveto
          -28 vlineto
          4 35 31 2 29 hhcurveto
          27 24 -2 -1 19 hvcurveto
          30 -3 rlineto
          28 vlineto
          -71 22 13 501 479 -565 42 14 rlineto
          -1 47 -1 42 41 vvcurveto
          204 9 156 5 155 vhcurveto
          24 1 18 1 31 4 rrcurveto
          28 vlineto
          -4 -33 -33 -2 -29 hhcurveto
          -27 -23 2 1 -19 hvcurveto
          -31 3 rlineto
          -28 vlineto
          71 -22 -16 -507 -479 572 -40 -15 rlineto
          3 -32 1 -49 -61 vvcurveto
          -51 -1 -38 -1 -37 vhcurveto
          endchar
        </CharString>
        <CharString name="Ntilde">
          268 98 34 rmoveto
          -23 -19 -1 -5 -31 hvcurveto
          -28 vlineto
          4 35 31 2 29 hhcurveto
          27 24 -2 -1 19 hvcurveto
          30 -3 rlineto
          28 vlineto
          -71 22 13 501 479 -565 42 14 rlineto
          -1 47 -1 42 41 vvcurveto
          204 9 156 5 155 vhcurveto
          24 1 18 1 31 4 rrcurveto
          28 vlineto
          -4 -33 -33 -2 -29 hhcurveto
          -27 -23 2 1 -19 hvcurveto
          -31 3 rlineto
          -28 vlineto
          71 -22 -16 -507 -479 572 -40 -15 rlineto
          3 -32 1 -49 -61 vvcurveto
          -51 -1 -38 -1 -37 vhcurveto
          393 348 rmoveto
          93 101 -15 15 -13 -11 -17 -14 -12 -11 rlinecurve
          -22 -20 -58 11 -39 18 -45 27 rlinecurve
          -29 hlineto
          -88 -97 14 -15 47 40 27 24 35 -29 35 -21 56 -18 rlinecurve
          endchar
        </CharString>
        <CharString name="O">
          -14 36 635 36 hstem
          137 347 rmoveto
          242 140 68 112 143 99 -147 -188 -167 -80 -133 -157 -164 -93 157 168 vhcurveto
          -91 -10 rmoveto
          -174 114 -177 233 179 152 151 218 166 -116 172 -197 -218 -147 -152 -204 vhcurveto
          endchar
        </CharString>
        <CharString name="OE">
          487 912 624 rmoveto
          13 -110 rlineto
          31 hlineto
          15 165 rlineto
          -4 -37 -47 -3 -52 -39 -43 1 -133 hhcurveto
          -5 -124 rlineto
          83 -46 -84 61 -106 hhcurveto
          -197 -135 -151 -206 -172 104 -178 226 88 78 39 65 57 hvcurveto
          -3 -85 rlineto
          83 118 -10 -5 139 hvcurveto
          38 159 rlineto
          -32 hlineto
          -48 -103 -222 -8 9 300 40 -3 86 -3 79 -11 rlinecurve
          5 62 -208 -11 4 110 3 47 1 57 5 53 rlinecurve
          -559 -292 rmoveto
          246 135 64 103 136 95 -145 -188 -181 -86 -121 -140 -160 -83 162 163 vhcurveto
          endchar
        </CharString>
        <CharString name="Oacute">
          -14 36 635 36 hstem
          137 347 rmoveto
          242 140 68 112 143 99 -147 -188 -167 -80 -133 -157 -164 -93 157 168 vhcurveto
          -91 -10 rmoveto
          -174 114 -177 233 179 152 151 218 166 -116 172 -197 -218 -147 -152 -204 vhcurveto
          310 418 rmoveto
          197 111 -19 15 -16 20 -13 23 rlinecurve
          -167 -147 rlineto
          endchar
        </CharString>
        <CharString name="Ocircumflex">
          -14 36 635 36 hstem
          137 347 rmoveto
          242 140 68 112 143 99 -147 -188 -167 -80 -133 -157 -164 -93 157 168 vhcurveto
          -91 -10 rmoveto
          -174 114 -177 233 179 152 151 218 166 -116 172 -197 -218 -147 -152 -204 vhcurveto
          361 505 rmoveto
          142 -87 21 20 -141 131 rlineto
          -40 hlineto
          -150 -131 19 -20 rlineto
          endchar
        </CharString>
        <CharString name="Odieresis">
          -14 36 635 36 hstem
          137 347 rmoveto
          242 140 68 112 143 99 -147 -188 -167 -80 -133 -157 -164 -93 157 168 vhcurveto
          -91 -10 rmoveto
          -174 114 -177 233 179 152 151 218 166 -116 172 -197 -218 -147 -152 -204 vhcurveto
          311 434 rmoveto
          4 0 5 1 7 vhcurveto
          11 1 17 4 25 vhcurveto
          -16 17 -66 -14 rlineto
          -5 0 -6 -1 -6 vhcurveto
          -12 -2 -17 -3 -25 vhcurveto
          17 -16 rlineto
          235 15 rmoveto
          4 0 5 1 7 vhcurveto
          11 1 17 4 25 vhcurveto
          -17 17 -65 -14 rlineto
          -5 0 -6 -1 -6 vhcurveto
          -12 -2 -17 -3 -25 vhcurveto
          17 -16 rlineto
          endchar
        </CharString>
        <CharString name="Ograve">
          -14 36 635 36 hstem
          137 347 rmoveto
          242 140 68 112 143 99 -147 -188 -167 -80 -133 -157 -164 -93 157 168 vhcurveto
          -91 -10 rmoveto
          -174 114 -177 233 179 152 151 218 166 -116 172 -197 -218 -147 -152 -204 vhcurveto
          417 442 rmoveto
          -175 142 -12 -21 -14 -21 -16 -20 rlinecurve
          198 -104 rlineto
          endchar
        </CharString>
        <CharString name="Oslash">
          46 337 rmoveto
          -108 45 -112 90 -66 vhcurveto
          -76 -114 31 -20 76 114 rlineto
          -29 49 60 -16 72 hhcurveto
          179 152 151 218 101 -42 99 -75 67 hvcurveto
          60 90 -31 22 -60 -89 rlineto
          29 -45 -56 19 -64 hhcurveto
          -218 -147 -152 -204 hvcurveto
          91 10 rmoveto
          242 140 68 112 59 51 -24 -44 41 vhcurveto
          -323 -485 rlineto
          -53 63 -27 87 93 vvcurveto
          494 -25 rmoveto
          -167 -80 -133 -157 -61 -50 20 36 -40 vhcurveto
          321 480 rlineto
          43 -60 24 -83 -93 vvcurveto
          endchar
        </CharString>
        <CharString name="Otilde">
          -14 36 635 36 hstem
          137 347 rmoveto
          242 140 68 112 143 99 -147 -188 -167 -80 -133 -157 -164 -93 157 168 vhcurveto
          -91 -10 rmoveto
          -174 114 -177 233 179 152 151 218 166 -116 172 -197 -218 -147 -152 -204 vhcurveto
          443 422 rmoveto
          93 101 -15 15 -13 -11 -17 -14 -12 -11 rlinecurve
          -22 -20 -58 11 -39 18 -45 27 rlinecurve
          -29 hlineto
          -88 -97 14 -15 47 40 27 24 35 -29 35 -21 56 -18 rlinecurve
          endchar
        </CharString>
        <CharString name="P">
          10 200 647 rmoveto
          3 16 18 2 21 hhcurveto
          117 59 -62 -104 -97 -64 -70 -91 -11 -10 1 2 -11 hvcurveto
          -1 -31 rlineto
          -3 11 16 -2 21 hhcurveto
          118 100 92 117 102 -66 87 -149 hvcurveto
          -69 -34 -12 -45 hhcurveto
          -23 -24 2 1 -17 hvcurveto
          -11 1 -9 2 -9 1 rrcurveto
          -28 vlineto
          71 -22 -20 -595 rlineto
          -24 -17 -3 -3 -32 hvcurveto
          -28 vlineto
          5 48 39 2 33 hhcurveto
          33 25 -3 -1 17 hvcurveto
          25 -3 rlineto
          28 vlineto
          -70 22 rlineto
          endchar
        </CharString>
        <CharString name="Q">
          690 -143 rmoveto
          -26 -18 -19 -14 -30 -13 -33 8 -48 26 -133 74 rrcurveto
          43 -73 -47 9 -33 hhcurveto
          -28 -40 -11 -11 -21 hvcurveto
          8 -23 73 16 177 -115 39 -29 76 -47 68 -3 rlinecurve
          36 17 45 42 27 33 rrcurveto
          -571 506 rmoveto
          242 140 68 112 143 99 -147 -188 -167 -80 -133 -157 -164 -93 157 168 vhcurveto
          -91 -10 rmoveto
          -174 114 -177 233 179 152 151 218 166 -116 172 -197 -218 -147 -152 -204 vhcurveto
          endchar
        </CharString>
        <CharString name="R">
          56 591 28 rmoveto
          -81 22 -159 276 rlineto
          57 19 94 49 118 vvcurveto
          88 -62 84 -156 vhcurveto
          -59 -35 -12 -44 hhcurveto
          -24 -23 2 1 -17 hvcurveto
          -11 1 -9 2 -9 1 rrcurveto
          -28 vlineto
          71 -22 -20 -595 rlineto
          -24 -17 -3 -3 -32 hvcurveto
          -28 vlineto
          5 48 39 2 33 hhcurveto
          33 25 -3 -1 17 hvcurveto
          25 -3 rlineto
          28 vlineto
          -71 22 8 259 rlineto
          43 15 2 18 hhcurveto
          8 1 177 -312 rlineto
          140 hlineto
          -389 647 rmoveto
          4 23 17 1 23 hhcurveto
          124 38 -79 -62 -86 -44 -82 -163 hvcurveto
          -29 hlineto
          endchar
        </CharString>
        <CharString name="S">
          -34 231 25 rmoveto
          -57 -60 34 24 -24 hvcurveto
          -8 85 rlineto
          -30 hlineto
          -12 -155 rlineto
          -15 45 66 -12 69 hhcurveto
          113 108 86 108 94 -76 60 -86 62 hvcurveto
          -58 43 -72 36 81 vvcurveto
          66 51 35 58 43 42 -12 -24 32 vhcurveto
          14 -100 rlineto
          28 hlineto
          11 147 rlineto
          13 -43 -62 12 -64 hhcurveto
          -152 -36 -94 -71 -94 91 -58 58 -45 hvcurveto
          58 -48 85 -49 -80 vvcurveto
          -69 -48 -60 -84 vhcurveto
          endchar
        </CharString>
        <CharString name="T">
          68 250 34 rmoveto
          -23 -17 -3 -3 -33 hvcurveto
          -28 vlineto
          5 48 40 2 33 hhcurveto
          32 25 -3 -1 17 hvcurveto
          26 -3 rlineto
          28 vlineto
          -71 22 19 586 189 -8 14 -107 rlineto
          30 hlineto
          15 165 rlineto
          -5 -63 -149 -2 -177 hhcurveto
          -41 -50 1 5 -75 hvcurveto
          -20 -164 rlineto
          29 hlineto
          35 127 188 -9 rlineto
          endchar
        </CharString>
        <CharString name="Thorn">
          12 291 547 rmoveto
          -44 -27 -4 -1 -23 hvcurveto
          4 103 25 3 14 0 34 3 rlinecurve
          28 vlineto
          -5 -48 -40 -2 -33 hhcurveto
          -33 -25 2 1 -16 hvcurveto
          -10 1 -9 2 -7 1 rrcurveto
          -28 vlineto
          72 -22 -21 -595 rlineto
          -23 -16 -3 -3 -34 hvcurveto
          -28 vlineto
          5 48 40 2 33 hhcurveto
          33 25 -3 -1 17 hvcurveto
          25 -3 rlineto
          28 vlineto
          -71 22 15 460 rlineto
          3 16 19 2 21 hhcurveto
          117 58 -62 -104 -98 -62 -69 -92 -11 -11 1 2 -11 hvcurveto
          -1 -31 rlineto
          -3 11 16 -2 21 hhcurveto
          120 98 90 119 100 -66 89 -148 hvcurveto
          endchar
        </CharString>
        <CharString name="U">
          210 38 651 rmoveto
          72 -22 rlineto
          -5 -80 -11 -298 -55 vvcurveto
          -144 106 -66 164 165 84 95 175 15 vhcurveto
          33 389 25 3 14 0 34 3 rlinecurve
          28 vlineto
          -5 -48 -39 -2 -31 hhcurveto
          -32 -23 2 1 -15 hvcurveto
          -9 1 -7 2 -7 1 rrcurveto
          -28 vlineto
          72 -22 -14 -368 rlineto
          -157 -5 -72 -76 -133 hhcurveto
          -137 -62 67 135 21 2 50 12 344 hvcurveto
          23 3 16 0 34 3 rrcurveto
          28 vlineto
          -5 -48 -40 -2 -33 hhcurveto
          -33 -25 2 1 -17 hvcurveto
          -25 4 rlineto
          endchar
        </CharString>
        <CharString name="Uacute">
          210 38 651 rmoveto
          72 -22 rlineto
          -5 -80 -11 -298 -55 vvcurveto
          -144 106 -66 164 165 84 95 175 15 vhcurveto
          33 389 25 3 14 0 34 3 rlinecurve
          28 vlineto
          -5 -48 -39 -2 -31 hhcurveto
          -32 -23 2 1 -15 hvcurveto
          -9 1 -7 2 -7 1 rrcurveto
          -28 vlineto
          72 -22 -14 -368 rlineto
          -157 -5 -72 -76 -133 hhcurveto
          -137 -62 67 135 21 2 50 12 344 hvcurveto
          23 3 16 0 34 3 rrcurveto
          28 vlineto
          -5 -48 -40 -2 -33 hhcurveto
          -33 -25 2 1 -17 hvcurveto
          -25 4 rlineto
          308 76 rmoveto
          197 111 -19 15 -16 20 -13 23 rlinecurve
          -167 -147 rlineto
          endchar
        </CharString>
        <CharString name="Ucircumflex">
          210 38 651 rmoveto
          72 -22 rlineto
          -5 -80 -11 -298 -55 vvcurveto
          -144 106 -66 164 165 84 95 175 15 vhcurveto
          33 389 25 3 14 0 34 3 rlinecurve
          28 vlineto
          -5 -48 -39 -2 -31 hhcurveto
          -32 -23 2 1 -15 hvcurveto
          -9 1 -7 2 -7 1 rrcurveto
          -28 vlineto
          72 -22 -14 -368 rlineto
          -157 -5 -72 -76 -133 hhcurveto
          -137 -62 67 135 21 2 50 12 344 hvcurveto
          23 3 16 0 34 3 rrcurveto
          28 vlineto
          -5 -48 -40 -2 -33 hhcurveto
          -33 -25 2 1 -17 hvcurveto
          -25 4 rlineto
          360 163 rmoveto
          142 -87 21 20 -141 131 rlineto
          -40 hlineto
          -150 -131 19 -20 rlineto
          endchar
        </CharString>
        <CharString name="Udieresis">
          210 38 651 rmoveto
          72 -22 rlineto
          -5 -80 -11 -298 -55 vvcurveto
          -144 106 -66 164 165 84 95 175 15 vhcurveto
          33 389 25 3 14 0 34 3 rlinecurve
          28 vlineto
          -5 -48 -39 -2 -31 hhcurveto
          -32 -23 2 1 -15 hvcurveto
          -9 1 -7 2 -7 1 rrcurveto
          -28 vlineto
          72 -22 -14 -368 rlineto
          -157 -5 -72 -76 -133 hhcurveto
          -137 -62 67 135 21 2 50 12 344 hvcurveto
          23 3 16 0 34 3 rrcurveto
          28 vlineto
          -5 -48 -40 -2 -33 hhcurveto
          -33 -25 2 1 -17 hvcurveto
          -25 4 rlineto
          312 92 rmoveto
          4 0 5 1 7 vhcurveto
          11 1 17 4 25 vhcurveto
          -16 17 -66 -14 rlineto
          -5 0 -6 -1 -6 vhcurveto
          -12 -2 -17 -3 -25 vhcurveto
          17 -16 rlineto
          235 15 rmoveto
          4 0 5 1 7 vhcurveto
          11 1 17 4 25 vhcurveto
          -17 17 -65 -14 rlineto
          -5 0 -6 -1 -6 vhcurveto
          -12 -2 -17 -3 -25 vhcurveto
          17 -16 rlineto
          endchar
        </CharString>
        <CharString name="Ugrave">
          210 38 651 rmoveto
          72 -22 rlineto
          -5 -80 -11 -298 -55 vvcurveto
          -144 106 -66 164 165 84 95 175 15 vhcurveto
          33 389 25 3 14 0 34 3 rlinecurve
          28 vlineto
          -5 -48 -39 -2 -31 hhcurveto
          -32 -23 2 1 -15 hvcurveto
          -9 1 -7 2 -7 1 rrcurveto
          -28 vlineto
          72 -22 -14 -368 rlineto
          -157 -5 -72 -76 -133 hhcurveto
          -137 -62 67 135 21 2 50 12 344 hvcurveto
          23 3 16 0 34 3 rrcurveto
          28 vlineto
          -5 -48 -40 -2 -33 hhcurveto
          -33 -25 2 1 -17 hvcurveto
          -25 4 rlineto
          426 100 rmoveto
          -175 142 -12 -21 -14 -21 -16 -20 rlinecurve
          198 -104 rlineto
          endchar
        </CharString>
        <CharString name="V">
          128 152 645 rmoveto
          25 3 14 0 34 3 rrcurveto
          28 vlineto
          -5 -48 -41 -2 -32 hhcurveto
          -35 -24 2 1 -19 hvcurveto
          -10 1 -9 2 -7 1 rrcurveto
          -28 vlineto
          70 -22 226 -644 39 8 276 652 25 3 14 0 34 3 rlinecurve
          28 vlineto
          -5 -35 -51 -1 -15 hhcurveto
          -28 -25 2 1 -17 hvcurveto
          -30 3 rlineto
          -28 vlineto
          58 -22 -202 -538 rlineto
          -6 hlineto
          endchar
        </CharString>
        <CharString name="W">
          398 464 595 rmoveto
          -161 -470 rlineto
          -6 hlineto
          -141 520 24 3 16 0 33 3 rlinecurve
          28 vlineto
          -5 -48 -41 -2 -33 hhcurveto
          -33 -27 2 1 -17 hvcurveto
          -27 4 rlineto
          -28 vlineto
          77 -22 180 -644 39 8 159 462 142 -470 38 8 237 652 22 3 19 0 31 3 rlinecurve
          28 vlineto
          -5 -48 -38 -2 -29 hhcurveto
          -31 -21 2 1 -13 hvcurveto
          -9 1 -6 2 -5 1 rrcurveto
          -28 vlineto
          58 -22 -161 -504 rlineto
          -7 hlineto
          -144 479 rlineto
          endchar
        </CharString>
        <CharString name="X">
          56 46 34 rmoveto
          -24 -1 -16 -2 -23 -3 rrcurveto
          -28 vlineto
          5 49 38 2 31 hhcurveto
          32 22 -3 -1 15 hvcurveto
          22 -3 rlineto
          28 vlineto
          -68 22 154 252 143 -268 rlineto
          -25 -14 -3 -3 -34 hvcurveto
          -28 vlineto
          5 48 40 2 35 hhcurveto
          35 25 -3 -1 19 hvcurveto
          27 -3 rlineto
          28 vlineto
          -74 22 -177 325 188 270 24 1 15 1 24 4 rlinecurve
          28 vlineto
          -7 -48 -39 0 -31 hhcurveto
          -31 -23 2 1 -15 hvcurveto
          -9 1 -7 2 -6 1 rrcurveto
          -28 vlineto
          68 -22 -130 -216 -126 232 25 3 14 0 34 3 rlinecurve
          28 vlineto
          -5 -48 -40 -2 -35 hhcurveto
          -35 -25 2 1 -19 hvcurveto
          -11 1 -9 2 -7 1 rrcurveto
          -28 vlineto
          80 -22 154 -289 rlineto
          endchar
        </CharString>
        <CharString name="Y">
          86 565 644 rmoveto
          24 1 18 1 27 4 rrcurveto
          28 vlineto
          -5 -48 -38 -2 -33 hhcurveto
          -32 -24 2 1 -16 hvcurveto
          -24 4 rlineto
          -28 vlineto
          73 -21 -165 -289 rlineto
          -8 hlineto
          -172 304 23 3 17 -3 33 6 rlinecurve
          28 vlineto
          -5 -48 -40 -2 -35 hhcurveto
          -35 -25 2 1 -19 hvcurveto
          -11 1 -10 2 -8 1 rrcurveto
          -28 vlineto
          83 -21 193 -333 -6 -262 rlineto
          -23 -16 -3 -3 -34 hvcurveto
          -28 vlineto
          5 48 40 2 33 hhcurveto
          33 25 -3 -1 16 hvcurveto
          26 -3 rlineto
          28 vlineto
          -71 22 8 247 rlineto
          endchar
        </CharString>
        <CharString name="Yacute">
          86 565 644 rmoveto
          24 1 18 1 27 4 rrcurveto
          28 vlineto
          -5 -48 -38 -2 -33 hhcurveto
          -32 -24 2 1 -16 hvcurveto
          -24 4 rlineto
          -28 vlineto
          73 -21 -165 -289 rlineto
          -8 hlineto
          -172 304 23 3 17 -3 33 6 rlinecurve
          28 vlineto
          -5 -48 -40 -2 -35 hhcurveto
          -35 -25 2 1 -19 hvcurveto
          -11 1 -10 2 -8 1 rrcurveto
          -28 vlineto
          83 -21 193 -333 -6 -262 rlineto
          -23 -16 -3 -3 -34 hvcurveto
          -28 vlineto
          5 48 40 2 33 hhcurveto
          33 25 -3 -1 16 hvcurveto
          26 -3 rlineto
          28 vlineto
          -71 22 8 247 rlineto
          -80 458 rmoveto
          197 111 -19 15 -16 20 -13 23 rlinecurve
          -167 -147 rlineto
          endchar
        </CharString>
        <CharString name="Ydieresis">
          86 565 644 rmoveto
          24 1 18 1 27 4 rrcurveto
          28 vlineto
          -5 -48 -38 -2 -33 hhcurveto
          -32 -24 2 1 -16 hvcurveto
          -24 4 rlineto
          -28 vlineto
          73 -21 -165 -289 rlineto
          -8 hlineto
          -172 304 23 3 17 -3 33 6 rlinecurve
          28 vlineto
          -5 -48 -40 -2 -35 hhcurveto
          -35 -25 2 1 -19 hvcurveto
          -11 1 -10 2 -8 1 rrcurveto
          -28 vlineto
          83 -21 193 -333 -6 -262 rlineto
          -23 -16 -3 -3 -34 hvcurveto
          -28 vlineto
          5 48 40 2 33 hhcurveto
          33 25 -3 -1 16 hvcurveto
          26 -3 rlineto
          28 vlineto
          -71 22 8 247 rlineto
          -87 474 rmoveto
          4 0 5 1 7 vhcurveto
          11 1 17 4 25 vhcurveto
          -16 17 -66 -14 rlineto
          -5 0 -6 -1 -6 vhcurveto
          -12 -2 -17 -3 -25 vhcurveto
          17 -16 rlineto
          235 15 rmoveto
          4 0 5 1 7 vhcurveto
          11 1 17 4 25 vhcurveto
          -17 17 -65 -14 rlineto
          -5 0 -6 -1 -6 vhcurveto
          -12 -2 -17 -3 -25 vhcurveto
          17 -16 rlineto
          endchar
        </CharString>
        <CharString name="Z">
          108 560 hmoveto
          38 176 rlineto
          -33 hlineto
          -58 -126 -386 -22 461 619 1 32 rlineto
          -500 hlineto
          -33 -161 rlineto
          31 hlineto
          56 109 358 24 -471 -621 -1 -30 rlineto
          endchar
        </CharString>
        <CharString name="a">
          -43 315 -10 rmoveto
          26 85 28 27 40 hvcurveto
          -8 19 -32 -15 -27 -8 -23 -3 rlinecurve
          131 4 122 13 133 vhcurveto
          8 -38 -25 6 -42 hhcurveto
          -130 -128 -176 -207 -16 0 -16 3 -16 hvcurveto
          51 -17 82 22 88 88 55 104 rlinecurve
          7 -2 -3 -62 -10 -102 -5 -31 rlinecurve
          22 338 rmoveto
          -8 -173 -150 -113 -58 -8 rrcurveto
          -1 19 -1 17 19 vvcurveto
          165 50 118 100 24 27 -7 -5 20 vhcurveto
          endchar
        </CharString>
        <CharString name="aacute">
          -43 315 -10 rmoveto
          26 85 28 27 40 hvcurveto
          -8 19 -32 -15 -27 -8 -23 -3 rlinecurve
          131 4 122 13 133 vhcurveto
          8 -38 -25 6 -42 hhcurveto
          -130 -128 -176 -207 -16 0 -16 3 -16 hvcurveto
          51 -17 82 22 88 88 55 104 rlinecurve
          7 -2 -3 -62 -10 -102 -5 -31 rlinecurve
          22 338 rmoveto
          -8 -173 -150 -113 -58 -8 rrcurveto
          -1 19 -1 17 19 vvcurveto
          165 50 118 100 24 27 -7 -5 20 vhcurveto
          -63 176 rmoveto
          161 158 -21 11 -21 13 -19 19 rlinecurve
          -123 -185 rlineto
          endchar
        </CharString>
        <CharString name="acircumflex">
          -43 86 0 97 195 endchar
        </CharString>
        <CharString name="acute">
          -237 73 553 rmoveto
          161 158 -21 11 -21 13 -19 19 rlinecurve
          -123 -185 rlineto
          endchar
        </CharString>
        <CharString name="acute.case">
          -197 219 755 rmoveto
          197 111 -19 15 -16 20 -13 23 rlinecurve
          -167 -147 rlineto
          endchar
        </CharString>
        <CharString name="adieresis">
          -43 99 0 97 200 endchar
        </CharString>
        <CharString name="ae">
          47 288 438 rmoveto
          -130 -128 -176 -207 -16 1 -16 1 -16 hvcurveto
          52 -17 53 13 58 43 49 59 rlinecurve
          8 -36 15 -34 27 -28 38 -17 rcurveline
          94 35 65 59 35 32 -13 18 rcurveline
          -59 -45 -48 -30 -55 -8 -31 36 -13 55 -3 57 82 25 55 37 38 35 22 20 18 21 14 21 1 58 rcurveline
          20 -20 -28 2 -21 hhcurveto
          -25 -24 -5 -9 -23 hvcurveto
          8 -38 -25 6 -42 hhcurveto
          -184 -387 rmoveto
          -1 19 -1 17 19 vvcurveto
          165 50 118 100 24 26 -7 -5 20 vhcurveto
          -50 -52 -35 -81 -77 vvcurveto
          -7 0 -8 1 -7 vhcurveto
          -48 -56 -55 -35 -31 -3 rrcurveto
          373 315 rmoveto
          -8 -15 -11 -16 -15 -17 -25 -28 -43 -34 -71 -32 3 68 21 67 43 31 rrcurveto
          1 4 4 0 5 hhcurveto
          33 31 -8 -17 29 hvcurveto
          endchar
        </CharString>
        <CharString name="agrave">
          -43 113 0 97 193 endchar
        </CharString>
        <CharString name="ampersand">
          -15 240 250 rmoveto
          125 -16 -8 -61 -11 -96 -72 -37 rlinecurve
          -88 hlineto
          -37 35 -24 64 65 vvcurveto
          84 38 83 92 18 vhcurveto
          2 25 rlineto
          -51 21 -33 59 55 vvcurveto
          37 14 36 35 27 vhcurveto
          1 7 5 0 8 hhcurveto
          41 37 -10 -17 28 hvcurveto
          5 -72 rlineto
          22 hlineto
          12 120 rlineto
          19 -21 -26 3 -22 hhcurveto
          -127 -69 -91 -91 -47 18 -46 40 -35 hvcurveto
          -87 -45 -39 -89 -80 vvcurveto
          -93 51 -86 99 113 99 121 118 24 vhcurveto
          60 hlineto
          3 65 rlineto
          -15 -57 -59 -6 -64 hhcurveto
          -27 -27 0 3 -28 hvcurveto
          endchar
        </CharString>
        <CharString name="aring">
          -43 315 -10 rmoveto
          26 85 28 27 40 hvcurveto
          -8 19 -32 -15 -27 -8 -23 -3 rlinecurve
          131 4 122 13 133 vhcurveto
          8 -38 -25 6 -42 hhcurveto
          -130 -128 -176 -207 -16 0 -16 3 -16 hvcurveto
          51 -17 82 22 88 88 55 104 rlinecurve
          7 -2 -3 -62 -10 -102 -5 -31 rlinecurve
          22 338 rmoveto
          -8 -173 -150 -113 -58 -8 rrcurveto
          -1 19 -1 17 19 vvcurveto
          165 50 118 100 24 27 -7 -5 20 vhcurveto
          -57 334 rmoveto
          41 18 -38 -27 -40 -22 -24 -36 -42 -17 35 29 34 21 31 37 hvcurveto
          -99 -72 rmoveto
          -43 25 -43 67 59 50 45 59 44 -28 38 -63 -68 -42 -49 -51 vhcurveto
          endchar
        </CharString>
        <CharString name="asciicircum">
          -157 199 620 rmoveto
          109 -171 rlineto
          56 hlineto
          -148 230 rlineto
          -35 hlineto
          -147 -230 rlineto
          56 hlineto
          endchar
        </CharString>
        <CharString name="asciitilde">
          -93 293 230 rmoveto
          94 101 -15 15 -15 -11 -15 -14 -12 -11 rlinecurve
          -22 -20 -59 11 -41 19 -42 26 rlinecurve
          -29 hlineto
          -89 -97 14 -15 13 12 20 16 15 12 rlinecurve
          27 24 36 -27 33 -23 57 -18 rlinecurve
          endchar
        </CharString>
        <CharString name="asterisk">
          -54 209 496 rmoveto
          -159 -69 10 -15 14 -26 8 -18 rlinecurve
          143 102 -27 -172 rlineto
          1 13 16 0 5 8 9 -1 5 hhcurveto
          11 hlineto
          -11 173 133 -104 37 57 -151 73 157 65 -11 17 -8 18 -12 25 rlinecurve
          -143 -101 25 172 rlineto
          -3 -12 -13 1 -11 hhcurveto
          -11 -11 1 1 -11 hvcurveto
          13 -170 -134 100 -9 -17 -11 -18 -16 -23 rlinecurve
          endchar
        </CharString>
        <CharString name="at">
          229 519 69 rmoveto
          112 3 99 11 115 vhcurveto
          8 -32 -22 4 -36 hhcurveto
          -111 -109 -150 -177 -15 1 -11 1 -15 hvcurveto
          44 -15 70 16 77 80 45 88 rlinecurve
          7 -2 -3 -54 -7 -86 -5 -27 rlinecurve
          15 -15 rlineto
          136 111 127 140 163 -114 105 -175 -220 -164 -162 -217 -196 147 -140 192 83 82 23 51 93 hvcurveto
          -12 29 rlineto
          -43 -80 -65 -19 -76 hhcurveto
          -183 -121 122 184 189 142 143 186 148 98 -88 -144 -114 -74 -92 -83 -16 hvcurveto
          -52 252 rmoveto
          -8 -139 -120 -95 -48 -4 rrcurveto
          -1 16 0 15 15 vvcurveto
          134 39 93 83 19 21 -5 -5 16 vhcurveto
          endchar
        </CharString>
        <CharString name="atilde">
          -43 315 -10 rmoveto
          26 85 28 27 40 hvcurveto
          -8 19 -32 -15 -27 -8 -23 -3 rlinecurve
          131 4 122 13 133 vhcurveto
          8 -38 -25 6 -42 hhcurveto
          -130 -128 -176 -207 -16 0 -16 3 -16 hvcurveto
          51 -17 82 22 88 88 55 104 rlinecurve
          7 -2 -3 -62 -10 -102 -5 -31 rlinecurve
          22 338 rmoveto
          -8 -173 -150 -113 -58 -8 rrcurveto
          -1 19 -1 17 19 vvcurveto
          165 50 118 100 24 27 -7 -5 20 vhcurveto
          51 195 rmoveto
          93 101 -15 15 -42 -36 -22 -20 -58 11 -39 18 -45 27 rlinecurve
          -29 hlineto
          -88 -97 14 -15 47 40 27 24 37 -29 32 -20 57 -19 rlinecurve
          endchar
        </CharString>
        <CharString name="b">
          -77 140 295 rmoveto
          8 201 16 243 3 3 -16 17 rcurveline
          -148 -30 2 -21 56 4 29 4 -2 -323 -16 -177 -18 -208 rlinecurve
          -11 35 28 -7 47 hhcurveto
          121 122 144 159 43 -8 42 -20 43 hvcurveto
          -42 17 -83 -19 -53 -52 -53 -74 rlinecurve
          -16 -147 rmoveto
          5 148 117 81 58 3 rrcurveto
          23 -44 9 -46 -47 vvcurveto
          -108 -56 -94 -89 -23 -27 5 7 -20 vhcurveto
          endchar
        </CharString>
        <CharString name="backslash">
          33 90 719 rmoveto
          -54 hlineto
          430 -893 rlineto
          54 hlineto
          endchar
        </CharString>
        <CharString name="bar">
          -309 82 -196 rmoveto
          48 955 -48 hlineto
          endchar
        </CharString>
        <CharString name="braceleft">
          -247 265 733 rmoveto
          -142 -24 -6 -104 -72 vvcurveto
          -73 vlineto
          -31 -3 -68 -16 -35 vhcurveto
          -82 -46 -1 -30 79 -43 rlineto
          8 -31 2 -55 -27 -47 -7 -41 -43 vvcurveto
          -67 16 -80 120 -19 vhcurveto
          7 25 -66 34 rlineto
          -5 23 -6 16 24 62 9 45 51 vvcurveto
          95 -31 63 -79 31 vhcurveto
          116 49 10 104 86 28 -1 29 28 vvcurveto
          27 7 40 8 19 vhcurveto
          70 32 rlineto
          endchar
        </CharString>
        <CharString name="braceright">
          -248 7 -203 rmoveto
          142 24 6 103 73 vvcurveto
          73 vlineto
          31 3 68 16 35 vhcurveto
          82 46 1 30 -79 43 rlineto
          -8 29 -2 59 25 47 7 41 43 vvcurveto
          67 -16 80 -119 19 vhcurveto
          -8 -25 70 -34 rlineto
          4 -23 3 -16 -24 -63 -8 -43 -52 vvcurveto
          -95 31 -62 79 -32 vhcurveto
          -117 -48 -10 -107 -84 -28 2 -29 -28 vvcurveto
          -27 -2 -40 -11 -19 vhcurveto
          -73 -32 rlineto
          endchar
        </CharString>
        <CharString name="bracketleft">
          -255 237 -140 rmoveto
          -112 hlineto
          30 825 rlineto
          111 hlineto
          1 34 rlineto
          -171 hlineto
          -31 -893 rlineto
          171 hlineto
          endchar
        </CharString>
        <CharString name="bracketright">
          -255 -140 vmoveto
          -1 -34 rlineto
          171 hlineto
          31 893 rlineto
          -171 hlineto
          -1 -34 rlineto
          111 hlineto
          -29 -825 rlineto
          endchar
        </CharString>
        <CharString name="brokenbar">
          -300 86 419 rmoveto
          49 340 -49 hlineto
          -955 vmoveto
          49 340 -49 hlineto
          endchar
        </CharString>
        <CharString name="bullet">
          -216 70 340 rmoveto
          -47 36 -37 48 47 37 37 47 46 -37 38 -47 -48 -36 -38 -46 vhcurveto
          endchar
        </CharString>
        <CharString name="c">
          -164 311 134 rmoveto
          -60 -45 -48 -30 -56 -8 rrcurveto
          -32 38 -13 65 61 vvcurveto
          73 18 69 45 34 vhcurveto
          37 40 0 -19 64 hvcurveto
          16 60 rlineto
          4 -19 -18 2 -16 hhcurveto
          -144 -91 -139 -132 -59 17 -58 40 -43 hvcurveto
          37 -17 96 35 64 59 35 32 rlinecurve
          endchar
        </CharString>
        <CharString name="caron">
          -130 192 610 rmoveto
          -121 119 -21 -20 120 -156 rlineto
          40 hlineto
          131 156 -19 20 rlineto
          endchar
        </CharString>
        <CharString name="caron.case">
          -50 313 837 rmoveto
          -142 87 -21 -20 141 -131 rlineto
          40 hlineto
          150 131 -19 20 rlineto
          endchar
        </CharString>
        <CharString name="ccedilla">
          -164 238 -118 rmoveto
          37 -38 24 -40 16 vhcurveto
          7 46 27 15 61 31 43 41 26 24 rlinecurve
          -13 18 -59 -45 -49 -30 -55 -8 rlinecurve
          -32 38 -14 65 61 vvcurveto
          72 19 70 44 34 vhcurveto
          38 38 -1 -18 66 hvcurveto
          16 60 rlineto
          4 -19 -18 2 -17 hhcurveto
          -143 -91 -139 -132 -59 17 -58 40 -43 hvcurveto
          36 -16 -11 -70 37 -16 35 -17 19 -24 rlinecurve
          -29 -12 -22 -9 -24 hhcurveto
          -28 -31 12 11 -23 hvcurveto
          -2 -55 rlineto
          -6 16 17 -3 18 hhcurveto
          62 59 42 55 hvcurveto
          endchar
        </CharString>
        <CharString name="cedilla">
          -256 219 -118 rmoveto
          37 -36 23 -42 17 vhcurveto
          10 62 rlineto
          -36 hlineto
          -17 -100 37 -16 35 -17 19 -24 rlinecurve
          -29 -11 -22 -9 -24 hhcurveto
          -28 -33 12 11 -21 hvcurveto
          -2 -55 rlineto
          -6 16 17 -3 17 hhcurveto
          64 57 42 55 hvcurveto
          endchar
        </CharString>
        <CharString name="cent">
          -147 318 134 rmoveto
          -29 -23 -28 -18 -26 -14 -17 -9 rcurveline
          11 319 4 -1 23 -1 26 -6 32 -9 rlinecurve
          16 60 rlineto
          4 -19 -18 2 -17 hhcurveto
          -15 -15 -2 -3 -15 hvcurveto
          4 103 rlineto
          -36 hlineto
          -4 -115 -15 -6 -15 -8 -13 -10 rlinecurve
          -69 -51 -41 -91 -88 vvcurveto
          -59 17 -58 40 -43 vhcurveto
          37 -17 16 6 15 6 14 7 rlinecurve
          -4 -118 rlineto
          35 hlineto
          5 137 14 9 13 8 12 9 rlinecurve
          33 23 25 23 17 16 rrcurveto
          -137 275 rmoveto
          -11 -334 -9 -3 -10 -2 -9 -1 rlinecurve
          -32 37 -14 66 61 vvcurveto
          73 21 69 42 34 vhcurveto
          endchar
        </CharString>
        <CharString name="circumflex">
          -130 199 672 rmoveto
          121 -119 21 20 -120 156 rlineto
          -40 hlineto
          -131 -156 19 -20 rlineto
          endchar
        </CharString>
        <CharString name="circumflex.case">
          -49 318 842 rmoveto
          142 -87 21 20 -141 131 rlineto
          -40 hlineto
          -150 -131 19 -20 rlineto
          endchar
        </CharString>
        <CharString name="colon">
          -303 143 6 rmoveto
          5 0 5 1 7 vhcurveto
          13 1 17 4 27 vhcurveto
          -18 18 -71 -15 rlineto
          -5 0 -6 -1 -7 vhcurveto
          -1 -12 0 -20 -4 -25 18 -18 rcurveline
          82 356 rmoveto
          -1 5 0 5 1 7 1 13 1 17 4 27 -18 18 rcurveline
          -71 -15 rlineto
          -1 -5 0 -6 -7 vvcurveto
          -1 -12 -1 -20 -3 -25 18 -18 rcurveline
          endchar
        </CharString>
        <CharString name="comma">
          -323 12 -152 rmoveto
          64 67 58 84 5 80 -19 19 rcurveline
          -75 -16 rlineto
          1 -16 1 -16 -13 vvcurveto
          -62 -9 -50 -41 -62 vhcurveto
          endchar
        </CharString>
        <CharString name="copyright">
          282 80 340 rmoveto
          178 145 146 179 177 147 -146 -178 -178 -147 -146 -177 -179 -145 146 178 vhcurveto
          -35 hmoveto
          -198 161 -160 198 197 161 160 198 198 -161 160 -197 -198 -161 -160 -198 vhcurveto
          384 181 rmoveto
          44 28 -17 -10 18 hvcurveto
          5 -54 rlineto
          31 hlineto
          7 96 rlineto
          9 -32 -43 8 -57 hhcurveto
          -132 -106 -94 -123 -118 100 -85 125 33 55 7 19 41 hvcurveto
          -8 28 rlineto
          -11 -44 -18 -3 -38 hhcurveto
          -86 -97 55 125 103 83 65 91 hvcurveto
          endchar
        </CharString>
        <CharString name="currency">
          203 83 340 rmoveto
          -67 23 -62 40 -49 vhcurveto
          -97 -97 34 -34 96 96 rlineto
          -43 48 64 -26 68 hhcurveto
          72 65 26 44 49 hvcurveto
          98 -97 34 34 -98 98 rlineto
          40 49 24 61 67 vvcurveto
          69 -27 63 -41 51 vhcurveto
          102 102 -34 34 -101 -101 rlineto
          41 -49 -63 26 -71 hhcurveto
          -67 -60 -26 -41 -48 hvcurveto
          -101 101 -34 -34 100 -101 rlineto
          -41 -51 -25 -64 -69 vvcurveto
          47 4 rmoveto
          131 105 108 127 128 105 -108 -131 -129 -105 -108 -128 -127 -105 108 129 vhcurveto
          endchar
        </CharString>
        <CharString name="d">
          -43 386 759 rmoveto
          -148 -30 2 -21 56 4 29 4 -1 -280 rlineto
          1 -11 -11 1 -15 hhcurveto
          -143 -114 -198 -187 -15 -1 -16 3 -15 hvcurveto
          52 -17 80 21 92 89 52 104 rlinecurve
          8 -2 -4 -64 -4 -37 -3 -49 -5 -45 rlinecurve
          17 -17 rlineto
          25 86 28 27 40 hvcurveto
          -10 19 -31 -15 -26 -8 -23 -3 rlinecurve
          323 5 189 20 192 vhcurveto
          -83 -397 rmoveto
          -12 -173 -144 -113 -61 -8 rrcurveto
          -1 17 -1 18 19 vvcurveto
          165 51 119 100 23 27 -7 -5 20 vhcurveto
          endchar
        </CharString>
        <CharString name="degree">
          -236 85 594 rmoveto
          39 29 29 39 38 30 -29 -39 -38 -30 -30 -38 -39 -29 30 38 vhcurveto
          -38 hmoveto
          -60 46 -46 60 60 46 46 60 60 -46 46 -60 -60 -46 -46 -60 vhcurveto
          endchar
        </CharString>
        <CharString name="dieresis">
          -179 133 583 rmoveto
          5 0 5 1 7 vhcurveto
          11 1 17 4 25 vhcurveto
          -16 17 -66 -14 rlineto
          -5 0 -6 -1 -6 vhcurveto
          -12 -2 -17 -3 -25 vhcurveto
          17 -16 rlineto
          218 14 rmoveto
          5 0 5 1 7 vhcurveto
          11 1 17 4 25 vhcurveto
          -17 17 -66 -14 rlineto
          -17 vlineto
          -1 -12 -1 -17 -3 -25 17 -16 rcurveline
          endchar
        </CharString>
        <CharString name="dieresis.case">
          -75 239 771 rmoveto
          4 0 5 1 7 vhcurveto
          11 1 17 4 25 vhcurveto
          -16 17 -66 -14 rlineto
          -5 0 -6 -1 -6 vhcurveto
          -12 -2 -17 -3 -25 vhcurveto
          17 -16 rlineto
          235 15 rmoveto
          4 0 5 1 7 vhcurveto
          11 1 17 4 25 vhcurveto
          -17 17 -65 -14 rlineto
          -5 0 -6 -1 -6 vhcurveto
          -12 -2 -17 -3 -25 vhcurveto
          17 -16 rlineto
          endchar
        </CharString>
        <CharString name="divide">
          58 61 292 rmoveto
          460 48 -460 hlineto
          264 -238 rmoveto
          -1 5 0 6 1 7 1 12 1 17 4 27 -18 18 rcurveline
          -71 -15 rlineto
          -1 -5 0 -6 -7 vvcurveto
          -1 -12 -1 -18 -3 -27 18 -18 rcurveline
          83 368 rmoveto
          -1 5 0 6 1 7 1 12 1 17 4 27 -18 18 rcurveline
          -71 -15 rlineto
          -1 -5 0 -6 -7 vvcurveto
          -1 -12 -1 -18 -3 -27 18 -18 rcurveline
          endchar
        </CharString>
        <CharString name="dollar">
          -42 250 693 rmoveto
          -36 -1 -30 -5 -23 -10 rrcurveto
          -72 -32 -23 -61 -56 vvcurveto
          -94 91 -59 58 -44 vhcurveto
          21 -18 -10 -288 rlineto
          -14 -14 2 3 -14 hvcurveto
          -41 12 -40 23 -18 18 -8 85 rcurveline
          -30 hlineto
          -12 -155 rlineto
          -15 45 66 -12 69 hhcurveto
          10 hlineto
          -3 -94 rlineto
          35 hlineto
          3 98 13 3 12 3 12 5 rlinecurve
          78 29 62 70 80 vvcurveto
          70 -43 54 -59 45 vhcurveto
          -19 15 -20 16 -21 15 9 260 rcurveline
          11 -1 10 -3 10 -3 21 -6 18 -9 17 -12 13 -100 rcurveline
          28 hlineto
          11 147 -21 7 -26 5 -30 5 rlinecurve
          -20 3 -20 3 -21 1 3 67 rcurveline
          -36 hlineto
          -40 -109 rmoveto
          11 4 12 2 13 1 -8 -238 rcurveline
          -4 3 -4 2 -3 3 rrcurveto
          -46 32 -38 37 60 vvcurveto
          49 27 33 40 12 vhcurveto
          70 -615 rmoveto
          -7 -3 -6 -2 -7 -2 9 260 rcurveline
          13 -11 13 -11 12 -12 rrcurveto
          28 -28 21 -32 -40 vvcurveto
          -53 -27 -45 -49 -21 vhcurveto
          endchar
        </CharString>
        <CharString name="dotlessi">
          -264 156 438 rmoveto
          -148 -30 2 -21 17 1 22 1 17 3 rlinecurve
          29 3 rlineto
          -120 0 -118 -21 -150 vhcurveto
          17 -17 rlineto
          27 86 29 26 42 hvcurveto
          -11 19 -31 -15 -29 -7 -23 -4 rlinecurve
          120 2 114 19 149 vhcurveto
          endchar
        </CharString>
        <CharString name="e">
          -155 332 416 rmoveto
          19 -22 -26 3 -22 hhcurveto
          -136 -92 -138 -133 -59 17 -58 40 -43 hvcurveto
          37 -17 96 35 64 59 35 32 rlinecurve
          -12 18 -60 -45 -48 -30 -56 -8 rlinecurve
          -29 36 -15 55 -1 57 81 24 56 38 38 35 22 20 18 21 14 21 rrcurveto
          -58 8 rmoveto
          -7 -15 -11 -16 -15 -17 -25 -28 -44 -34 -69 -31 rrcurveto
          67 25 66 40 32 vhcurveto
          1 5 5 0 4 hhcurveto
          33 30 -8 -17 29 hvcurveto
          endchar
        </CharString>
        <CharString name="eacute">
          -156 332 416 rmoveto
          19 -22 -26 3 -22 hhcurveto
          -136 -92 -138 -133 -59 17 -58 40 -43 hvcurveto
          37 -17 96 35 64 59 35 32 rlinecurve
          -12 18 -60 -45 -48 -30 -56 -8 rlinecurve
          -29 36 -15 55 -1 57 81 24 56 38 38 35 22 20 18 21 14 21 rrcurveto
          -58 8 rmoveto
          -7 -15 -11 -16 -15 -17 -25 -28 -44 -34 -69 -31 rrcurveto
          67 25 66 40 32 vhcurveto
          1 5 5 0 4 hhcurveto
          33 30 -8 -17 29 hvcurveto
          -47 187 rmoveto
          161 158 -21 11 -21 13 -19 19 rlinecurve
          -123 -185 rlineto
          endchar
        </CharString>
        <CharString name="ecircumflex">
          -156 332 416 rmoveto
          19 -22 -26 3 -22 hhcurveto
          -136 -92 -138 -133 -59 17 -58 40 -43 hvcurveto
          37 -17 96 35 64 59 35 32 rlinecurve
          -12 18 -60 -45 -48 -30 -56 -8 rlinecurve
          -29 36 -15 55 -1 57 81 24 56 38 38 35 22 20 18 21 14 21 rrcurveto
          -58 8 rmoveto
          -7 -15 -11 -16 -15 -17 -25 -28 -44 -34 -69 -31 rrcurveto
          67 25 66 40 32 vhcurveto
          1 5 5 0 4 hhcurveto
          33 30 -8 -17 29 hvcurveto
          -20 306 rmoveto
          121 -119 21 20 -120 156 rlineto
          -40 hlineto
          -131 -156 19 -20 rlineto
          endchar
        </CharString>
        <CharString name="edieresis">
          -155 332 416 rmoveto
          19 -22 -26 3 -22 hhcurveto
          -136 -92 -138 -133 -59 17 -58 40 -43 hvcurveto
          37 -17 96 35 64 59 35 32 rlinecurve
          -12 18 -60 -45 -48 -30 -56 -8 rlinecurve
          -29 36 -15 55 -1 57 81 24 56 38 38 35 22 20 18 21 14 21 rrcurveto
          -58 8 rmoveto
          -7 -15 -11 -16 -15 -17 -25 -28 -44 -34 -69 -31 rrcurveto
          67 25 66 40 32 vhcurveto
          1 5 5 0 4 hhcurveto
          33 30 -8 -17 29 hvcurveto
          -77 217 rmoveto
          5 0 5 1 7 vhcurveto
          11 1 17 4 25 vhcurveto
          -16 17 -66 -14 rlineto
          -5 0 -6 -1 -6 vhcurveto
          -12 -2 -17 -3 -25 vhcurveto
          17 -16 rlineto
          218 14 rmoveto
          5 0 5 1 7 vhcurveto
          11 1 17 4 25 vhcurveto
          -17 17 -66 -14 rlineto
          -17 vlineto
          -1 -12 -1 -17 -3 -25 17 -16 rcurveline
          endchar
        </CharString>
        <CharString name="egrave">
          -156 332 416 rmoveto
          19 -22 -26 3 -22 hhcurveto
          -136 -92 -138 -133 -59 17 -58 40 -43 hvcurveto
          37 -17 96 35 64 59 35 32 rlinecurve
          -12 18 -60 -45 -48 -30 -56 -8 rlinecurve
          -29 36 -15 55 -1 57 81 24 56 38 38 35 22 20 18 21 14 21 rrcurveto
          -58 8 rmoveto
          -7 -15 -11 -16 -15 -17 -25 -28 -44 -34 -69 -31 rrcurveto
          67 25 66 40 32 vhcurveto
          1 5 5 0 4 hhcurveto
          33 30 -8 -17 29 hvcurveto
          26 206 rmoveto
          -132 182 -17 -17 -20 -16 -21 -16 rlinecurve
          166 -152 rlineto
          endchar
        </CharString>
        <CharString name="eight">
          -26 437 555 rmoveto
          93 -77 45 -87 -94 -96 -64 -96 -67 49 -45 63 -50 vhcurveto
          -75 -59 -80 -74 -96 vvcurveto
          -101 82 -55 98 117 107 78 118 80 -60 55 -64 48 vhcurveto
          59 51 58 61 78 vvcurveto
          -194 -220 rmoveto
          48 -37 81 -57 -91 vvcurveto
          -76 -64 -52 -66 -82 -53 60 84 81 57 62 58 42 vhcurveto
          31 306 rmoveto
          69 53 -59 -73 -59 -37 -47 -43 -35 hvcurveto
          -11 9 rlineto
          -45 37 -88 61 73 vvcurveto
          61 50 32 52 vhcurveto
          endchar
        </CharString>
        <CharString name="emdash">
          229 681 266 rmoveto
          -613 hlineto
          -2 -56 rlineto
          613 hlineto
          endchar
        </CharString>
        <CharString name="endash">
          62 514 266 rmoveto
          -446 hlineto
          -2 -56 rlineto
          446 hlineto
          endchar
        </CharString>
        <CharString name="equal">
          104 83 270 rmoveto
          -48 460 48 vlineto
          -460 141 rmoveto
          -48 460 48 vlineto
          endchar
        </CharString>
        <CharString name="eth">
          -88 404 693 rmoveto
          -40 -11 -41 -11 -40 -13 -44 48 -56 34 -69 19 -7 -20 rcurveline
          52 -29 40 -34 29 -36 -32 -13 -31 -13 -31 -15 -2 -50 rcurveline
          37 23 40 21 41 17 37 -59 18 -61 9 -57 rrcurveto
          3 -17 -25 2 -21 hhcurveto
          -131 -86 -154 -111 -93 36 -90 96 152 74 152 189 121 -29 104 -59 77 hvcurveto
          37 15 36 13 35 13 rrcurveto
          -91 -396 rmoveto
          -88 -33 -126 -40 -24 vhcurveto
          -88 hlineto
          -47 52 -16 59 64 vvcurveto
          84 36 63 36 25 vhcurveto
          4 8 10 1 11 hhcurveto
          40 58 -16 -8 24 hvcurveto
          1 -17 0 -15 -13 vvcurveto
          endchar
        </CharString>
        <CharString name="exclam">
          -285 177 679 rmoveto
          -1 -13 -17 -1 -17 hhcurveto
          -17 -18 1 1 -12 hvcurveto
          8 -107 2 -120 3 -94 3 -160 rcurveline
          28 hlineto
          3 52 5 53 5 55 10 94 11 120 16 107 rrcurveto
          -27 -673 rmoveto
          -1 5 0 5 1 7 1 13 1 17 4 27 -18 18 rcurveline
          -71 -15 rlineto
          -1 -5 0 -6 -7 vvcurveto
          -1 -12 -1 -20 -3 -25 18 -18 rcurveline
          endchar
        </CharString>
        <CharString name="exclamdown">
          -315 148 346 rmoveto
          5 0 5 1 7 vhcurveto
          13 2 17 3 27 vhcurveto
          -17 18 -72 -15 rlineto
          -5 0 -6 -1 -7 vhcurveto
          -1 -12 0 -20 -3 -25 18 -18 rcurveline
          -40 -596 rmoveto
          1 13 17 1 17 hhcurveto
          17 18 -1 -1 12 hvcurveto
          -8 106 -5 126 96 vvcurveto
          -1 57 -1 56 55 vvcurveto
          -29 hlineto
          -3 -55 -5 -56 -5 -57 -11 -97 -10 -125 -16 -106 rrcurveto
          endchar
        </CharString>
        <CharString name="f">
          -223 60 -213 rmoveto
          -31 -68 9 24 -65 hvcurveto
          -1 -75 rlineto
          -8 28 35 -3 24 hhcurveto
          91 70 74 181 13 hvcurveto
          4 43 6 217 4 134 rrcurveto
          -5 47 44 -4 31 hhcurveto
          2 61 -31 -3 -43 -1 -49 -1 rlinecurve
          2 68 3 107 16 62 16 39 rlinecurve
          29 70 -5 -26 63 hvcurveto
          3 73 rlineto
          7 -28 -36 4 -24 hhcurveto
          -91 -70 -75 -180 -13 hvcurveto
          -1 -13 -2 -27 -1 -36 rrcurveto
          -87 hlineto
          -1 -21 19 -4 32 -6 36 -5 rlinecurve
          -4 -132 -8 -217 -48 vvcurveto
          -5 -106 -15 -64 -14 -38 rrcurveto
          endchar
        </CharString>
        <CharString name="f_b">
          216 433 295 rmoveto
          8 201 16 243 3 3 -16 17 rcurveline
          -56 -11 rlineto
          5 -29 -39 6 -27 hhcurveto
          -100 -69 -75 -180 -13 hvcurveto
          -1 -13 -2 -27 -1 -36 rrcurveto
          -87 hlineto
          -1 -21 19 -4 32 -6 36 -5 rlinecurve
          -4 -132 -8 -217 -48 vvcurveto
          -5 -106 -15 -64 -14 -38 rrcurveto
          -31 -68 9 24 -65 hvcurveto
          -1 -75 rlineto
          -8 28 35 -3 24 hhcurveto
          91 70 74 181 13 hvcurveto
          4 43 6 217 4 134 rrcurveto
          -5 47 44 -4 31 hhcurveto
          2 61 -31 -3 -43 -1 -49 -1 rlinecurve
          2 68 3 107 16 65 16 39 rlinecurve
          32 74 -6 -24 68 hvcurveto
          -294 -19 -180 -16 -197 vhcurveto
          -11 35 28 -7 47 hhcurveto
          121 122 144 159 43 -8 42 -20 43 hvcurveto
          -42 17 -83 -19 -53 -52 -53 -74 rlinecurve
          -16 -147 rmoveto
          5 148 116 81 59 3 rrcurveto
          23 -44 9 -46 -47 vvcurveto
          -108 -56 -94 -89 -23 -27 5 7 -20 vhcurveto
          endchar
        </CharString>
        <CharString name="f_f">
          16 534 435 rmoveto
          -20 -21 -2 -1 -35 hvcurveto
          -14 -16 0 -1 -18 hvcurveto
          2 67 3 107 16 62 15 39 rlinecurve
          31 68 -4 -27 64 hvcurveto
          2 73 rlineto
          7 -28 -35 4 -25 hhcurveto
          -22 -21 -5 -10 -20 hvcurveto
          -14 -7 -13 -9 -11 -12 -15 3 -17 3 -18 2 rrcurveto
          2 -19 -18 1 -15 hhcurveto
          -123 -79 -60 -195 -8 hvcurveto
          -3 -44 rlineto
          -86 hlineto
          -2 -21 3 -1 24 -2 39 -4 rlinecurve
          21 -2 rlineto
          -6 vlineto
          -8 -132 -4 -217 -48 vvcurveto
          -5 -106 -15 -64 -14 -38 rrcurveto
          -31 -68 9 24 -65 hvcurveto
          -1 -75 rlineto
          -8 28 35 -3 24 hhcurveto
          23 21 5 10 19 hvcurveto
          15 7 14 10 13 14 15 -3 15 -3 16 -1 rrcurveto
          -1 20 18 -1 15 hhcurveto
          149 55 84 217 8 hvcurveto
          4 64 2 92 2 80 rrcurveto
          1 25 1 23 21 vvcurveto
          -1 23 22 -1 20 hhcurveto
          -1 23 20 0 16 hhcurveto
          -198 -304 rmoveto
          -3 -145 -16 -66 -16 -39 rrcurveto
          -24 -47 5 12 -53 hvcurveto
          -15 4 -16 5 -16 6 8 21 rcurveline
          10 32 7 39 3 45 4 43 6 217 4 134 rrcurveto
          10 vlineto
          19 -1 21 -2 21 -2 85 -6 rcurveline
          28 -2 -2 -66 -2 -83 -4 -93 -2 -68 rlinecurve
          -4 592 rmoveto
          17 -4 16 -5 16 -6 -9 -27 rcurveline
          -10 -32 -7 -39 -3 -45 -1 -7 0 -10 -1 -13 -2 -44 rcurveline
          -12 -13 0 -1 -14 hvcurveto
          -35 -41 0 -1 -47 hvcurveto
          -13 2 hlineto
          1 36 3 107 16 65 16 39 rlinecurve
          24 48 -3 -12 51 hvcurveto
          endchar
        </CharString>
        <CharString name="f_f_i">
          222 584 375 rmoveto
          -113 -2 -113 -19 -142 vhcurveto
          17 -17 rlineto
          24 90 28 27 40 hvcurveto
          -10 19 -31 -15 -29 -7 -23 -4 rlinecurve
          120 2 113 19 150 vhcurveto
          -17 17 -36 -2 -42 -1 -90 -2 rlinecurve
          -67 -2 2 67 3 107 14 57 18 44 rlinecurve
          36 82 -5 -26 76 hvcurveto
          3 73 rlineto
          7 -31 -38 4 -28 hhcurveto
          -27 -25 -4 -8 -23 hvcurveto
          -18 -7 -16 -10 -14 -14 -16 3 -17 3 -19 2 rrcurveto
          2 -19 -18 1 -15 hhcurveto
          -123 -79 -60 -195 -8 hvcurveto
          -3 -43 rlineto
          -86 hlineto
          -2 -22 3 -1 28 -3 40 -3 rlinecurve
          16 -2 rlineto
          -6 vlineto
          -8 -132 -4 -217 -48 vvcurveto
          -5 -106 -15 -64 -14 -38 rrcurveto
          -31 -68 9 24 -65 hvcurveto
          -1 -75 rlineto
          -8 28 35 -3 24 hhcurveto
          23 21 5 10 19 hvcurveto
          15 7 14 10 13 14 15 -3 15 -3 16 -1 rrcurveto
          -1 20 18 -1 15 hhcurveto
          149 55 84 217 8 hvcurveto
          4 64 2 92 2 80 rrcurveto
          1 26 1 24 22 vvcurveto
          -1 8 8 0 8 hhcurveto
          -3 60 53 -1 39 hhcurveto
          -414 8 rmoveto
          11 vlineto
          25 -2 26 -2 27 -1 92 -6 rcurveline
          4 hlineto
          -2 -69 -2 -83 -4 -93 -2 -68 rlinecurve
          -3 -145 -16 -66 -16 -39 rrcurveto
          -24 -47 3 12 -53 hvcurveto
          -16 3 -16 5 -16 6 9 24 rcurveline
          10 32 7 39 3 45 rrcurveto
          3 35 8 158 128 vvcurveto
          183 194 rmoveto
          -1 -7 0 -10 -1 -13 -2 -44 rcurveline
          -37 -42 0 -1 -48 hvcurveto
          -48 1 hlineto
          1 36 3 107 16 65 16 39 rlinecurve
          24 47 -3 -12 53 hvcurveto
          16 -4 16 -5 16 -6 -3 -7 -2 -7 -2 -7 -11 -33 -8 -40 -3 -49 rrcurveto
          endchar
        </CharString>
        <CharString name="f_f_l">
          250 447 709 rmoveto
          32 73 -6 -24 68 hvcurveto
          -191 -3 -276 -24 -205 vhcurveto
          17 -17 rlineto
          25 86 28 27 40 hvcurveto
          -10 19 -31 -15 -26 -8 -23 -3 rlinecurve
          190 3 293 24 221 vhcurveto
          -17 17 -54 -11 rlineto
          7 -29 -24 4 -27 hhcurveto
          -27 -25 -4 -8 -23 hvcurveto
          -18 -7 -16 -10 -14 -14 -16 3 -17 3 -19 2 rrcurveto
          2 -19 -18 1 -15 hhcurveto
          -123 -79 -60 -195 -8 hvcurveto
          -3 -44 rlineto
          -86 hlineto
          -2 -21 3 -1 24 -2 39 -4 rlinecurve
          21 -2 rlineto
          -6 vlineto
          -8 -132 -4 -217 -48 vvcurveto
          -5 -106 -15 -64 -14 -38 rrcurveto
          -31 -68 9 24 -65 hvcurveto
          -1 -75 rlineto
          -8 28 35 -3 24 hhcurveto
          23 21 5 10 19 hvcurveto
          15 7 14 10 13 14 15 -3 15 -3 16 -1 rrcurveto
          -1 20 18 -1 15 hhcurveto
          149 55 84 217 8 hvcurveto
          4 64 2 92 2 80 rrcurveto
          1 25 1 23 21 vvcurveto
          -1 23 22 -1 20 hhcurveto
          -1 23 20 0 16 hhcurveto
          2 61 rlineto
          -20 -21 -2 -1 -35 hvcurveto
          -14 -16 0 -1 -18 hvcurveto
          2 67 3 107 14 59 18 45 rlinecurve
          -277 -326 rmoveto
          10 vlineto
          19 -1 21 -2 21 -2 85 -6 rcurveline
          28 -2 -2 -66 -2 -83 -4 -93 -2 -68 rlinecurve
          -3 -145 -16 -66 -16 -39 rrcurveto
          -24 -47 3 12 -53 hvcurveto
          -16 3 -16 5 -16 6 9 24 rcurveline
          10 32 7 39 3 45 rrcurveto
          3 35 8 158 128 vvcurveto
          164 352 rmoveto
          16 -4 16 -5 16 -6 -3 -7 -2 -7 -2 -7 -11 -33 -8 -40 -3 -49 -1 -7 0 -10 -1 -13 -2 -44 rcurveline
          -12 -13 0 -1 -14 hvcurveto
          -35 -41 0 -1 -47 hvcurveto
          -13 2 hlineto
          1 36 3 107 16 65 16 39 rlinecurve
          24 47 -3 -12 53 hvcurveto
          endchar
        </CharString>
        <CharString name="f_h">
          272 443 759 rmoveto
          -54 -11 rlineto
          5 -29 -39 6 -27 hhcurveto
          -99 -71 -69 -186 -13 hvcurveto
          -1 -13 -2 -27 -1 -36 rrcurveto
          -87 hlineto
          -1 -21 19 -4 32 -6 36 -5 rlinecurve
          -4 -132 -8 -217 -48 vvcurveto
          -5 -106 -15 -64 -14 -38 rrcurveto
          -31 -68 9 24 -65 hvcurveto
          -1 -75 rlineto
          -8 28 35 -3 24 hhcurveto
          91 70 74 181 13 hvcurveto
          4 43 6 217 4 134 rrcurveto
          -5 47 44 -4 31 hhcurveto
          2 61 -31 -3 -43 -1 -49 -1 rlinecurve
          2 68 3 107 16 65 16 39 rlinecurve
          33 72 -6 -24 69 hvcurveto
          -116 -2 -119 -5 -159 vhcurveto
          -3 -101 -7 -92 -11 -92 rrcurveto
          78 189 hlineto
          80 134 108 64 vhcurveto
          7 -31 1 -34 -37 vvcurveto
          -85 -12 -99 -11 -84 vhcurveto
          17 -17 rlineto
          26 85 28 27 40 hvcurveto
          -10 19 -31 -15 -29 -7 -23 -4 rlinecurve
          81 14 99 89 vvcurveto
          40 -3 39 -9 35 vhcurveto
          -37 17 -82 -19 -80 -65 -58 -77 rlinecurve
          -8 2 12 175 6 149 15 139 rlinecurve
          endchar
        </CharString>
        <CharString name="f_i">
          -17 406 438 rmoveto
          -3 -73 -47 -5 -115 hhcurveto
          2 68 3 107 14 56 18 45 rlinecurve
          36 81 -4 -27 77 hvcurveto
          3 73 rlineto
          7 -32 -37 4 -28 hhcurveto
          -109 -72 -60 -195 -16 hvcurveto
          -1 -13 -2 -27 -1 -36 rrcurveto
          -87 hlineto
          -1 -21 19 -4 32 -6 36 -5 rlinecurve
          -4 -132 -8 -217 -48 vvcurveto
          -5 -106 -15 -64 -14 -38 rrcurveto
          -31 -68 9 24 -65 hvcurveto
          -1 -75 rlineto
          -8 28 35 -3 24 hhcurveto
          91 70 74 181 13 hvcurveto
          4 43 2 220 8 133 175 -10 rcurveline
          -112 -2 -114 -19 -142 vhcurveto
          17 -17 rlineto
          25 87 29 26 42 hvcurveto
          -10 19 -32 -15 -30 -7 -21 -4 rlinecurve
          120 2 113 19 150 vhcurveto
          endchar
        </CharString>
        <CharString name="f_j">
          -39 406 438 rmoveto
          -3 -73 -47 -5 -115 hhcurveto
          2 68 3 107 14 56 18 45 rlinecurve
          36 81 -4 -27 77 hvcurveto
          3 73 rlineto
          7 -32 -37 4 -28 hhcurveto
          -109 -72 -60 -195 -16 hvcurveto
          -1 -13 -2 -27 -1 -36 rrcurveto
          -87 hlineto
          -1 -21 19 -4 32 -6 36 -5 rlinecurve
          -4 -132 -8 -217 -48 vvcurveto
          -5 -106 -15 -64 -14 -38 rrcurveto
          -31 -68 9 24 -65 hvcurveto
          -1 -75 rlineto
          -8 28 35 -3 24 hhcurveto
          91 70 74 181 13 hvcurveto
          4 43 2 220 8 133 174 -10 rcurveline
          -3 -94 0 -151 -8 -129 -4 -64 -86 -147 -28 -40 20 -16 rcurveline
          39 47 122 156 64 vvcurveto
          4 123 4 146 19 151 rrcurveto
          endchar
        </CharString>
        <CharString name="f_k">
          229 382 679 rmoveto
          -192 0 -266 -27 -221 vhcurveto
          78 hlineto
          69 -2 101 3 42 vhcurveto
          77 126 81 48 8 vhcurveto
          -3 -69 -36 -85 -79 -55 120 -179 rcurveline
          24 68 25 27 40 hvcurveto
          -10 19 -32 -15 -21 -4 -21 -4 rlinecurve
          -103 151 rlineto
          100 61 25 85 86 vvcurveto
          -37 17 -84 -20 -68 -52 -48 -69 rlinecurve
          -8 2 3 160 7 146 15 137 rlinecurve
          -17 17 -54 -11 rlineto
          5 -29 -39 6 -27 hhcurveto
          -99 -71 -69 -186 -13 hvcurveto
          -1 -13 -2 -27 -1 -36 rrcurveto
          -87 hlineto
          -1 -21 19 -4 32 -6 36 -5 rlinecurve
          -4 -132 -8 -217 -48 vvcurveto
          -5 -106 -15 -64 -14 -38 rrcurveto
          -31 -68 9 24 -65 hvcurveto
          -1 -75 rlineto
          -8 28 35 -3 24 hhcurveto
          91 70 74 181 13 hvcurveto
          4 43 6 217 4 134 rrcurveto
          -5 47 44 -4 31 hhcurveto
          2 61 -31 -3 -43 -1 -49 -1 rlinecurve
          2 68 3 107 16 65 16 39 rlinecurve
          33 72 -6 -24 69 hvcurveto
          endchar
        </CharString>
        <CharString name="f_l">
          12 443 759 rmoveto
          -54 -11 rlineto
          5 -29 -39 6 -27 hhcurveto
          -99 -71 -69 -186 -13 hvcurveto
          -1 -13 -2 -27 -1 -36 rrcurveto
          -87 hlineto
          -1 -21 19 -4 32 -6 36 -5 rlinecurve
          -4 -132 -8 -217 -48 vvcurveto
          -5 -106 -15 -64 -14 -38 rrcurveto
          -31 -68 9 24 -65 hvcurveto
          -1 -75 rlineto
          -8 28 35 -3 24 hhcurveto
          91 70 74 181 13 hvcurveto
          4 43 6 217 4 134 rrcurveto
          -5 47 44 -4 31 hhcurveto
          2 61 -31 -3 -43 -1 -49 -1 rlinecurve
          2 68 3 107 16 65 16 39 rlinecurve
          33 72 -6 -24 69 hvcurveto
          -191 -3 -276 -24 -205 vhcurveto
          17 -17 rlineto
          24 87 28 27 40 hvcurveto
          -10 19 -31 -15 -27 -8 -22 -3 rlinecurve
          190 3 293 24 221 vhcurveto
          endchar
        </CharString>
        <CharString name="five">
          -54 423 243 rmoveto
          118 -96 49 -96 -47 -31 -6 -5 -24 vhcurveto
          27 212 rlineto
          241 hlineto
          21 53 7 13 19 43 -25 10 rcurveline
          -40 -51 rlineto
          -254 hlineto
          -42 -328 9 -9 rlineto
          5 26 45 6 33 hhcurveto
          101 52 -55 -100 -108 -71 -51 -82 -48 -54 19 36 -43 hvcurveto
          -40 -67 rlineto
          -27 37 44 -11 44 hhcurveto
          138 149 109 145 hvcurveto
          endchar
        </CharString>
        <CharString name="four">
          -25 288 34 rmoveto
          -23 -16 -3 -3 -34 hvcurveto
          -28 vlineto
          5 48 40 2 32 hhcurveto
          32 25 -3 -1 16 hvcurveto
          24 -3 rlineto
          28 vlineto
          -71 22 6 172 rlineto
          84 hlineto
          23 57 -29 -3 -19 -1 -26 -1 -31 -3 rlinecurve
          13 406 -29 16 -345 -441 -1 -30 rlineto
          288 hlineto
          13 356 rmoveto
          -12 -311 rlineto
          -4 -75 -85 -3 -77 hhcurveto
          endchar
        </CharString>
        <CharString name="foursuperior">
          -207 168 426 rmoveto
          -16 -1 -9 -2 -23 -1 rrcurveto
          -19 vlineto
          3 29 26 2 23 hhcurveto
          28 22 -2 -3 21 hvcurveto
          19 vlineto
          -16 2 rlineto
          -17 3 -15 1 49 3 1 2 34 vvcurveto
          44 hlineto
          12 34 -15 -2 -9 -1 -15 0 -16 -1 rlinecurve
          7 205 -18 8 -179 -225 -1 -18 rlineto
          139 hlineto
          6 161 rmoveto
          -5 -134 rlineto
          -1 -33 -37 -1 -33 hhcurveto
          endchar
        </CharString>
        <CharString name="fraction">
          -51 7 -8 rmoveto
          490 680 -28 19 -490 -676 rlineto
          endchar
        </CharString>
        <CharString name="g">
          -65 83 -10 rmoveto
          82 22 88 88 55 104 7 -2 rcurveline
          -4 -120 7 -239 -58 -50 rrcurveto
          -1 -9 -11 -1 -12 hhcurveto
          -49 -80 10 19 -57 hvcurveto
          -2 -75 rlineto
          -8 26 41 -3 24 hhcurveto
          151 84 89 181 8 hvcurveto
          3 125 -1 142 16 153 rrcurveto
          8 -31 -25 6 -49 hhcurveto
          -142 -116 -201 -185 -15 0 -15 3 -15 hvcurveto
          287 338 rmoveto
          -8 -173 -150 -113 -58 -8 rrcurveto
          -1 17 -1 19 17 vvcurveto
          163 50 122 100 24 27 -7 -5 20 vhcurveto
          endchar
        </CharString>
        <CharString name="germandbls">
          10 294 403 rmoveto
          61 48 80 91 105 vvcurveto
          64 -43 48 -77 -89 -97 -75 -180 -13 vhcurveto
          -1 -13 -2 -27 -1 -36 rrcurveto
          -88 hlineto
          -2 -50 28 3 29 1 32 3 rlinecurve
          -8 -132 -3 -197 -46 vvcurveto
          -4 -108 -16 -76 -15 -39 rrcurveto
          -30 -69 9 24 -64 hvcurveto
          -2 -75 rlineto
          -8 28 35 -3 25 hhcurveto
          88 72 90 180 13 hvcurveto
          5 59 12 369 66 vvcurveto
          4 108 22 73 44 37 rrcurveto
          35 57 -17 -31 29 hvcurveto
          -120 -81 -104 -42 -52 vhcurveto
          -2 -30 71 -63 88 -80 41 -101 rlinecurve
          -59 -1 -19 -25 -51 hhcurveto
          -48 -39 24 26 -26 hvcurveto
          54 -23 vlineto
          -17 -114 rlineto
          -16 24 39 -18 60 hhcurveto
          77 73 42 107 76 -105 125 -94 63 hvcurveto
          endchar
        </CharString>
        <CharString name="grave">
          -231 240 572 rmoveto
          -132 182 -17 -17 -20 -16 -21 -16 rlinecurve
          166 -152 rlineto
          endchar
        </CharString>
        <CharString name="grave.case">
          -188 338 779 rmoveto
          -175 142 -12 -21 -14 -21 -16 -20 rlinecurve
          198 -104 rlineto
          endchar
        </CharString>
        <CharString name="greater">
          24 515 339 rmoveto
          -429 217 -22 -43 384 -195 -384 -194 22 -43 429 217 rlineto
          endchar
        </CharString>
        <CharString name="guillemotleft">
          -60 316 255 rmoveto
          102 172 -11 13 -193 -185 180 -184 12 11 rlineto
          -273 173 rmoveto
          163 209 -16 15 -255 -224 240 -213 16 15 rlineto
          endchar
        </CharString>
        <CharString name="guillemotright">
          -61 327 255 rmoveto
          -162 -198 16 -15 254 213 -240 224 -15 -15 rlineto
          -36 -209 rmoveto
          -102 -173 12 -11 192 184 -180 185 -12 -13 rlineto
          endchar
        </CharString>
        <CharString name="guilsinglleft">
          -195 132 255 rmoveto
          163 209 -16 15 -255 -224 241 -213 15 15 rlineto
          endchar
        </CharString>
        <CharString name="guilsinglright">
          -196 191 255 rmoveto
          -162 -198 16 -15 254 213 -239 224 -16 -15 rlineto
          endchar
        </CharString>
        <CharString name="h">
          -28 143 759 rmoveto
          -148 -30 2 -21 56 4 29 4 rlineto
          -117 -2 -156 -5 -158 vhcurveto
          -3 -101 -7 -92 -11 -92 rrcurveto
          78 189 hlineto
          80 134 108 64 vhcurveto
          5 -31 3 -34 -37 vvcurveto
          -85 -12 -99 -11 -84 vhcurveto
          17 -17 rlineto
          24 87 28 27 40 hvcurveto
          -10 19 -31 -15 -29 -7 -23 -4 rlinecurve
          81 14 99 89 vvcurveto
          40 -3 39 -9 35 vhcurveto
          -37 17 -82 -19 -80 -65 -58 -77 rlinecurve
          -8 2 11 175 7 149 15 139 rlinecurve
          endchar
        </CharString>
        <CharString name="hyphen">
          -107 68 266 rmoveto
          -2 -56 rlineto
          276 hlineto
          2 56 rlineto
          endchar
        </CharString>
        <CharString name="i">
          -264 156 438 rmoveto
          -148 -30 2 -21 17 1 22 1 17 3 rlinecurve
          29 3 rlineto
          -120 0 -118 -21 -150 vhcurveto
          17 -17 rlineto
          26 88 28 27 40 hvcurveto
          -10 19 -31 -15 -29 -7 -23 -4 rlinecurve
          120 2 114 19 149 vhcurveto
          14 146 rmoveto
          17 vlineto
          1 13 1 17 4 27 -18 18 rcurveline
          -71 -15 rlineto
          -5 0 -6 -1 -7 vhcurveto
          -1 -12 0 -20 -4 -25 18 -18 rcurveline
          endchar
        </CharString>
        <CharString name="iacute">
          -264 156 438 rmoveto
          -148 -30 2 -21 17 1 22 1 17 3 rlinecurve
          29 3 rlineto
          -120 0 -118 -21 -150 vhcurveto
          17 -17 rlineto
          27 86 29 26 42 hvcurveto
          -11 19 -31 -15 -29 -7 -23 -4 rlinecurve
          120 2 114 19 149 vhcurveto
          -39 132 rmoveto
          161 158 -21 11 -21 13 -19 19 rlinecurve
          -123 -185 rlineto
          endchar
        </CharString>
        <CharString name="icircumflex">
          -265 156 438 rmoveto
          -148 -30 2 -21 17 1 22 1 17 3 rlinecurve
          29 3 rlineto
          -120 0 -118 -21 -150 vhcurveto
          17 -17 rlineto
          27 86 29 26 42 hvcurveto
          -11 19 -31 -15 -29 -7 -23 -4 rlinecurve
          120 2 114 19 149 vhcurveto
          -32 251 rmoveto
          121 -119 21 20 -120 156 rlineto
          -40 hlineto
          -131 -156 19 -20 rlineto
          endchar
        </CharString>
        <CharString name="idieresis">
          -264 156 438 rmoveto
          -148 -30 2 -21 17 1 22 1 17 3 rlinecurve
          29 3 rlineto
          -120 0 -118 -21 -150 vhcurveto
          17 -17 rlineto
          27 86 29 26 42 hvcurveto
          -11 19 -31 -15 -29 -7 -23 -4 rlinecurve
          120 2 114 19 149 vhcurveto
          -74 162 rmoveto
          5 0 5 1 7 vhcurveto
          11 1 17 4 25 vhcurveto
          -16 17 -66 -14 rlineto
          -5 0 -6 -1 -6 vhcurveto
          -12 -2 -17 -3 -25 vhcurveto
          17 -16 rlineto
          218 14 rmoveto
          5 0 5 1 7 vhcurveto
          11 1 17 4 25 vhcurveto
          -17 17 -66 -14 rlineto
          -17 vlineto
          -1 -12 -1 -17 -3 -25 17 -16 rcurveline
          endchar
        </CharString>
        <CharString name="igrave">
          -264 -84 0 245 193 endchar
        </CharString>
        <CharString name="j">
          -284 161 438 rmoveto
          -148 -30 2 -21 17 1 22 1 16 3 rlinecurve
          30 3 -3 -92 -1 -163 -8 -139 rlinecurve
          -4 -63 -87 -149 -27 -39 20 -16 rcurveline
          40 49 117 153 4 65 4 123 4 146 19 151 rrcurveto
          12 146 rmoveto
          5 0 5 1 7 vhcurveto
          13 2 17 3 27 vhcurveto
          -17 18 -72 -15 rlineto
          -5 0 -6 -1 -7 vhcurveto
          -1 -12 0 -20 -3 -25 18 -18 rcurveline
          endchar
        </CharString>
        <CharString name="k">
          -70 135 299 rmoveto
          4 160 6 146 16 137 -17 17 rcurveline
          -148 -30 2 -21 55 4 30 4 rlineto
          -191 -3 -304 -24 -221 vhcurveto
          77 hlineto
          69 1 101 42 vvcurveto
          76 128 82 47 8 vhcurveto
          -3 -69 -36 -84 -80 -56 121 -179 rcurveline
          24 68 26 26 39 hvcurveto
          -9 19 -32 -15 -20 -4 -23 -4 rlinecurve
          -103 151 rlineto
          102 62 23 83 87 vvcurveto
          -37 17 -83 -20 -68 -52 -48 -69 rlinecurve
          endchar
        </CharString>
        <CharString name="l">
          -284 147 759 rmoveto
          -148 -30 2 -21 56 4 29 4 rlineto
          -191 -3 -297 -24 -221 vhcurveto
          17 -17 rlineto
          25 86 28 27 40 hvcurveto
          -10 19 -31 -15 -27 -8 -22 -3 rlinecurve
          190 3 293 24 221 vhcurveto
          endchar
        </CharString>
        <CharString name="less">
          24 34 298 rmoveto
          428 -217 22 43 -383 194 383 195 -22 43 -428 -217 rlineto
          endchar
        </CharString>
        <CharString name="logicalnot">
          61 78 340 rmoveto
          -48 382 -124 48 172 vlineto
          endchar
        </CharString>
        <CharString name="m">
          217 387 21 hstem
          718 64 rmoveto
          -31 -15 -29 -7 -23 -4 rrcurveto
          81 14 99 89 vvcurveto
          40 -3 39 -9 35 vhcurveto
          -37 17 -82 -18 -60 -66 -57 -76 rlinecurve
          1 17 1 18 17 vvcurveto
          31 -3 29 -7 31 vhcurveto
          -37 17 -83 -19 -59 -65 -58 -77 rlinecurve
          -8 2 rlineto
          8 19 11 107 16 vvcurveto
          -16 17 -148 -30 2 -21 17 1 22 1 17 3 rlinecurve
          29 3 rlineto
          3 -19 3 -20 -71 vvcurveto
          -100 -6 -94 -15 -91 vhcurveto
          78 177 hlineto
          80 113 121 65 vhcurveto
          5 -28 4 -33 -32 vvcurveto
          -100 -6 -94 -15 -91 vhcurveto
          78 177 hlineto
          80 113 121 65 vhcurveto
          7 -32 1 -34 -37 vvcurveto
          -85 -12 -99 -11 -84 vhcurveto
          17 -17 rlineto
          26 84 28 27 42 hvcurveto
          endchar
        </CharString>
        <CharString name="macron">
          56 131 633 rmoveto
          -2 -57 rlineto
          276 hlineto
          2 57 rlineto
          endchar
        </CharString>
        <CharString name="minus">
          103 542 340 rmoveto
          -460 -48 460 hlineto
          endchar
        </CharString>
        <CharString name="mu">
          21 104 428 rmoveto
          -5 -271 -31 -240 -16 -170 rrcurveto
          78 hlineto
          4 243 96 27 67 61 57 73 rlinecurve
          8 -2 -11 -49 -4 -50 -5 -43 rlinecurve
          17 -17 rlineto
          24 87 28 27 40 hvcurveto
          -10 19 -31 -15 -29 -7 -23 -4 rlinecurve
          52 -2 28 3 25 vhcurveto
          3 85 3 89 16 111 rrcurveto
          -78 hlineto
          -3 -189 rlineto
          -91 -4 -130 -98 -66 hhcurveto
          -5 31 -2 32 36 vvcurveto
          90 11 104 11 85 vhcurveto
          endchar
        </CharString>
        <CharString name="multiply">
          1 464 483 rmoveto
          -34 34 -167 -167 -167 167 -34 -34 167 -167 -167 -167 34 -34 167 167 167 -167 34 34 -167 167 rlineto
          endchar
        </CharString>
        <CharString name="n">
          -7 494 64 rmoveto
          -31 -15 -29 -7 -23 -4 rrcurveto
          81 14 99 89 vvcurveto
          40 -3 39 -9 35 vhcurveto
          -37 17 -82 -19 -80 -65 -58 -77 rlinecurve
          -8 2 rlineto
          8 19 11 107 16 vvcurveto
          -16 17 -148 -30 2 -21 17 1 22 1 17 3 rlinecurve
          29 3 rlineto
          3 -19 3 -20 -71 vvcurveto
          -100 -6 -94 -15 -91 vhcurveto
          78 189 hlineto
          79 134 110 64 vhcurveto
          7 -32 1 -34 -37 vvcurveto
          -85 -12 -99 -11 -84 vhcurveto
          18 -17 rlineto
          24 86 28 27 40 hvcurveto
          endchar
        </CharString>
        <CharString name="nbspace">
          -303 endchar
        </CharString>
        <CharString name="nine">
          -13 80 -14 rmoveto
          215 80 175 165 222 vvcurveto
          149 -83 91 -122 -109 -114 -76 -150 -130 88 -53 85 65 51 16 35 48 vhcurveto
          -43 -149 -134 -111 -135 -64 rrcurveto
          191 325 rmoveto
          -89 -56 55 93 129 75 44 62 74 72 -62 -152 -27 -3 -21 -5 -24 hvcurveto
          -23 -39 -38 -12 -53 hhcurveto
          endchar
        </CharString>
        <CharString name="ntilde">
          -8 494 64 rmoveto
          -31 -15 -29 -7 -23 -4 rrcurveto
          81 14 99 89 vvcurveto
          40 -3 39 -9 35 vhcurveto
          -37 17 -82 -19 -80 -65 -58 -77 rlinecurve
          -8 2 rlineto
          8 19 11 107 16 vvcurveto
          -16 17 -148 -30 2 -21 17 1 22 1 17 3 rlinecurve
          29 3 rlineto
          3 -19 3 -20 -71 vvcurveto
          -100 -6 -94 -15 -91 vhcurveto
          78 189 hlineto
          79 134 110 64 vhcurveto
          7 -32 1 -34 -37 vvcurveto
          -85 -12 -99 -11 -84 vhcurveto
          18 -17 rlineto
          24 86 28 27 40 hvcurveto
          -133 527 rmoveto
          93 101 -15 15 -42 -36 -22 -20 -58 11 -39 18 -45 27 rlinecurve
          -29 hlineto
          -88 -97 14 -15 47 40 27 24 37 -29 32 -20 57 -19 rlinecurve
          endchar
        </CharString>
        <CharString name="numbersign">
          203 333 679 rmoveto
          -65 hlineto
          -33 -183 rlineto
          -154 hlineto
          -2 -50 39 3 53 4 57 1 rlinecurve
          -40 -224 rlineto
          -154 hlineto
          -2 -50 40 4 52 3 57 1 rlinecurve
          -33 -188 rlineto
          65 hlineto
          34 190 177 4 -34 -194 rlineto
          65 hlineto
          34 195 rlineto
          44 39 1 28 hhcurveto
          45 hlineto
          6 34 rlineto
          -156 hlineto
          41 231 rlineto
          45 38 1 28 hhcurveto
          45 hlineto
          6 34 rlineto
          -156 hlineto
          33 183 rlineto
          -65 hlineto
          -32 -183 rlineto
          -178 hlineto
          130 -266 rmoveto
          -177 hlineto
          40 227 178 3 rlineto
          endchar
        </CharString>
        <CharString name="o">
          -99 382 252 rmoveto
          93 -26 93 -97 -141 -84 -149 -116 -93 35 -90 98 138 77 154 108 vhcurveto
          -222 -212 rmoveto
          -47 51 -16 60 64 vvcurveto
          84 36 63 36 25 vhcurveto
          88 hlineto
          47 -51 17 -60 -64 vvcurveto
          -83 -37 -64 -35 -25 vhcurveto
          endchar
        </CharString>
        <CharString name="oacute">
          -99 382 252 rmoveto
          93 -26 93 -97 -141 -84 -149 -116 -93 35 -90 98 138 77 154 108 vhcurveto
          -222 -212 rmoveto
          -47 51 -16 60 64 vvcurveto
          84 36 63 36 25 vhcurveto
          88 hlineto
          47 -51 17 -60 -64 vvcurveto
          -83 -37 -64 -35 -25 vhcurveto
          513 vmoveto
          161 158 -21 11 -21 13 -19 19 rlinecurve
          -123 -185 rlineto
          endchar
        </CharString>
        <CharString name="ocircumflex">
          -99 53 0 111 195 endchar
        </CharString>
        <CharString name="odieresis">
          -99 79 0 111 200 endchar
        </CharString>
        <CharString name="oe">
          37 259 438 rmoveto
          -141 -84 -149 -116 -93 36 -90 96 40 35 13 20 29 hvcurveto
          14 -16 37 -17 96 35 64 59 35 32 rlinecurve
          -13 18 -59 -45 -49 -30 -55 -8 rlinecurve
          -31 36 -12 55 -3 57 81 23 57 39 38 35 21 20 18 21 14 21 1 58 rcurveline
          20 -20 -28 2 -21 hhcurveto
          -43 -38 -14 -23 -32 hvcurveto
          23 -19 -27 14 -37 hhcurveto
          -162 -223 rmoveto
          84 36 63 36 25 vhcurveto
          88 hlineto
          13 -13 10 -13 7 -13 rrcurveto
          -39 -51 -21 -65 -65 vvcurveto
          -45 9 -45 23 -37 vhcurveto
          -99 hlineto
          -47 52 -16 59 64 vvcurveto
          369 151 rmoveto
          -7 -15 -11 -16 -15 -17 -25 -28 -43 -34 -71 -31 3 68 23 65 40 32 rrcurveto
          1 4 6 0 4 hhcurveto
          33 30 -8 -17 29 hvcurveto
          endchar
        </CharString>
        <CharString name="ograve">
          -99 62 0 111 193 endchar
        </CharString>
        <CharString name="one">
          -193 35 543 rmoveto
          35 13 28 16 23 12 13 7 12 7 10 7 -20 -571 rcurveline
          -25 -14 -3 -3 -34 hvcurveto
          -28 vlineto
          5 48 40 2 33 hhcurveto
          32 26 -3 -1 16 hvcurveto
          26 -3 rlineto
          28 vlineto
          -71 22 21 643 rlineto
          -29 hlineto
          -63 -63 -55 -33 -64 -29 rrcurveto
          endchar
        </CharString>
        <CharString name="onehalf">
          108 114 326 rmoveto
          -16 -1 -10 -2 -23 -1 rrcurveto
          -19 vlineto
          3 32 27 1 22 hhcurveto
          23 16 -1 -1 11 hvcurveto
          18 -2 rlineto
          19 vlineto
          -14 2 rlineto
          -22 3 -11 6 42 vvcurveto
          4 1 2 8 278 vhcurveto
          -20 hlineto
          -36 -39 -34 -21 -39 -18 8 -17 rcurveline
          19 7 17 9 12 7 20 13 rcurveline
          -46 -608 rmoveto
          490 680 -28 19 -490 -676 rlineto
          474 249 rmoveto
          -92 -86 -82 -75 -77 vhcurveto
          6 -13 rlineto
          200 hlineto
          4 24 7 33 8 31 -18 4 rcurveline
          -11 -38 -9 -4 -23 -3 -101 -3 rcurveline
          124 122 30 53 53 vvcurveto
          57 -43 27 -44 -37 -38 -16 -32 -28 vhcurveto
          13 -16 rlineto
          19 20 28 12 23 hhcurveto
          28 22 -18 -41 hvcurveto
          endchar
        </CharString>
        <CharString name="onequarter">
          77 114 327 rmoveto
          -16 -1 -10 -2 -23 -1 rrcurveto
          -19 vlineto
          3 32 27 1 22 hhcurveto
          23 16 -1 -1 11 hvcurveto
          18 -2 rlineto
          19 vlineto
          -14 2 rlineto
          -22 3 -11 6 42 vvcurveto
          4 1 2 8 278 vhcurveto
          -20 hlineto
          -36 -39 -34 -21 -39 -18 8 -17 rcurveline
          19 7 17 9 12 7 20 13 rcurveline
          -46 -609 rmoveto
          490 680 -28 19 -490 -676 rlineto
          395 8 rmoveto
          -16 -1 -9 -2 -23 -1 rrcurveto
          -19 vlineto
          3 29 26 2 23 hhcurveto
          28 22 -2 -3 21 hvcurveto
          19 vlineto
          -16 2 rlineto
          -17 3 -15 1 49 3 1 2 34 vvcurveto
          44 hlineto
          12 34 -15 -2 -9 -1 -15 0 -16 -1 rlinecurve
          7 205 -18 8 -179 -225 -1 -18 rlineto
          139 hlineto
          6 161 rmoveto
          -5 -134 rlineto
          -1 -33 -37 -1 -33 hhcurveto
          endchar
        </CharString>
        <CharString name="onesuperior">
          -278 109 426 rmoveto
          -16 -1 -10 -2 -23 -1 rrcurveto
          -19 vlineto
          3 32 27 1 22 hhcurveto
          23 16 -1 -1 11 hvcurveto
          18 -2 rlineto
          19 vlineto
          -14 2 rlineto
          -22 3 -11 6 42 vvcurveto
          4 1 2 8 278 vhcurveto
          -20 hlineto
          -36 -39 -34 -21 -39 -18 8 -17 rcurveline
          19 7 17 9 12 7 20 13 rcurveline
          endchar
        </CharString>
        <CharString name="ordfeminine">
          -95 278 378 rmoveto
          21 75 22 22 31 hvcurveto
          -9 20 -26 -12 -21 -7 -17 -2 rlinecurve
          105 2 94 11 109 vhcurveto
          5 -32 -18 6 -36 hhcurveto
          -104 -104 -141 -168 -13 2 -13 1 -13 hvcurveto
          49 -14 64 17 61 68 43 88 rlinecurve
          5 -2 -3 -50 -7 -81 -3 -26 rlinecurve
          16 270 rmoveto
          -8 -117 -113 -110 -44 -8 rrcurveto
          -1 17 -1 15 16 vvcurveto
          132 40 90 79 19 16 -5 -4 15 vhcurveto
          endchar
        </CharString>
        <CharString name="ordmasculine">
          -166 330 590 rmoveto
          75 -22 75 -77 -114 -68 -119 -95 -75 28 -72 79 110 64 126 85 vhcurveto
          -178 -164 rmoveto
          -36 40 -13 47 49 vvcurveto
          63 28 51 28 18 vhcurveto
          66 hlineto
          37 -39 13 -46 -51 vvcurveto
          -63 -27 -50 -29 -19 vhcurveto
          endchar
        </CharString>
        <CharString name="oslash">
          -56 -22 -31 rmoveto
          22 -23 93 96 rlineto
          -32 20 33 -20 45 hhcurveto
          139 78 156 110 35 -5 34 -9 31 hvcurveto
          90 93 -24 23 -80 -83 rlineto
          33 -19 -29 22 -47 hhcurveto
          -142 -83 -152 -117 -37 5 -36 12 -29 hvcurveto
          45 145 rmoveto
          84 36 66 37 24 vhcurveto
          88 hlineto
          19 -20 13 -19 9 -23 -191 -199 rcurveline
          -8 29 -3 29 29 vvcurveto
          64 -177 rmoveto
          -17 19 -14 18 -9 20 190 197 rcurveline
          7 -28 3 -27 -25 vvcurveto
          -84 -36 -66 -37 -24 vhcurveto
          endchar
        </CharString>
        <CharString name="otilde">
          -99 382 252 rmoveto
          93 -26 93 -97 -141 -84 -149 -116 -93 35 -90 98 138 77 154 108 vhcurveto
          -222 -212 rmoveto
          -47 51 -16 60 64 vvcurveto
          84 36 63 36 25 vhcurveto
          88 hlineto
          47 -51 17 -60 -64 vvcurveto
          -83 -37 -64 -35 -25 vhcurveto
          82 532 rmoveto
          93 101 -15 15 -42 -36 -22 -20 -58 11 -39 18 -45 27 rlinecurve
          -29 hlineto
          -88 -97 14 -15 47 40 27 24 37 -29 32 -20 57 -19 rlinecurve
          endchar
        </CharString>
        <CharString name="p">
          -60 78 -266 rmoveto
          148 30 -2 21 -17 -1 -22 -1 -17 -3 rlinecurve
          -29 -3 4 215 rlineto
          -1 11 11 -1 15 hhcurveto
          127 116 150 155 43 -9 43 -19 40 hvcurveto
          -42 17 -75 -21 -56 -36 -56 -67 rlinecurve
          -8 2 5 52 4 26 3 27 rlinecurve
          -17 17 -148 -30 2 -21 17 1 22 1 17 3 rlinecurve
          29 3 rlineto
          -272 -15 -201 -16 -171 vhcurveto
          88 432 rmoveto
          114 4 119 81 56 hhcurveto
          21 -39 10 -48 -48 vvcurveto
          -102 -48 -102 -96 -23 -27 5 7 -20 vhcurveto
          endchar
        </CharString>
        <CharString name="paragraph">
          -45 373 645 rmoveto
          22 3 22 0 29 3 rrcurveto
          28 vlineto
          -3 -48 -38 -1 -35 -69 -46 4 -29 hhcurveto
          -83 -61 -54 -77 -60 35 -61 100 hvcurveto
          14 hlineto
          -24 -693 rlineto
          47 hlineto
          32 895 rlineto
          84 hlineto
          -31 -895 rlineto
          47 hlineto
          endchar
        </CharString>
        <CharString name="parenleft">
          -186 337 733 rmoveto
          -192 -101 -116 -187 -202 vvcurveto
          -194 101 -146 175 -106 vhcurveto
          13 22 rlineto
          -145 126 -74 132 166 vvcurveto
          189 97 170 154 109 vhcurveto
          endchar
        </CharString>
        <CharString name="parenright">
          -186 -3 -203 rmoveto
          193 102 115 185 203 vvcurveto
          195 -101 144 -174 107 vhcurveto
          -14 -22 rlineto
          145 -126 75 -132 -166 vvcurveto
          -189 -100 -170 -151 -109 vhcurveto
          endchar
        </CharString>
        <CharString name="percent">
          135 105 -8 rmoveto
          490 680 -28 19 -27 -37 rlineto
          -13 -26 -57 -20 -79 hhcurveto
          -40 -29 5 7 -17 hvcurveto
          16 -16 -20 10 -28 hhcurveto
          -114 -68 -120 -94 -75 29 -72 78 110 64 123 88 27 -3 28 -8 24 hvcurveto
          -1 15 13 0 13 hhcurveto
          77 48 15 16 32 hvcurveto
          -437 -603 rlineto
          538 196 rmoveto
          74 -22 76 -77 -114 -68 -120 -94 -75 29 -72 78 110 64 124 87 vhcurveto
          -178 -164 rmoveto
          -36 40 -13 47 49 vvcurveto
          63 29 50 27 19 vhcurveto
          66 hlineto
          39 -39 12 -48 -49 vvcurveto
          -63 -27 -53 -30 -16 vhcurveto
          -355 298 rmoveto
          -37 40 -11 46 51 vvcurveto
          64 27 47 28 20 vhcurveto
          66 hlineto
          39 -40 11 -47 -49 vvcurveto
          -63 -26 -52 -30 -17 vhcurveto
          endchar
        </CharString>
        <CharString name="period">
          -324 132 6 rmoveto
          -1 5 0 5 1 7 1 13 1 17 4 27 -18 18 rcurveline
          -71 -15 rlineto
          -1 -5 0 -6 -7 vvcurveto
          -1 -12 -1 -20 -3 -25 18 -18 rcurveline
          endchar
        </CharString>
        <CharString name="periodcentered">
          -317 146 309 rmoveto
          18 vlineto
          1 12 1 17 4 27 -18 18 rcurveline
          -71 -15 rlineto
          -1 -5 0 -6 -7 vvcurveto
          -1 -12 0 -18 -4 -27 18 -18 rcurveline
          endchar
        </CharString>
        <CharString name="plus">
          8 36 340 rmoveto
          -48 206 -206 48 206 206 48 -206 206 -48 -206 vlineto
          endchar
        </CharString>
        <CharString name="plusminus">
          66 62 124 rmoveto
          -48 460 48 vlineto
          -460 257 rmoveto
          -48 206 -160 48 160 206 48 -206 206 -48 -206 vlineto
          endchar
        </CharString>
        <CharString name="q">
          -70 306 -266 rmoveto
          148 30 -2 21 -19 -1 -20 -1 -17 -3 rlinecurve
          -29 -3 rlineto
          132 5 381 16 134 vhcurveto
          8 -37 -22 6 -42 hhcurveto
          -143 -115 -199 -188 -15 2 -14 1 -15 hvcurveto
          51 -17 82 22 88 88 55 104 rlinecurve
          7 -2 -5 -62 -16 -358 -5 -31 rlinecurve
          30 594 rmoveto
          -8 -173 -150 -113 -58 -8 rrcurveto
          -1 19 -1 17 19 vvcurveto
          165 50 118 100 24 27 -7 -5 20 vhcurveto
          endchar
        </CharString>
        <CharString name="question">
          -160 163 206 rmoveto
          -16 24 -22 45 -3 17 rrcurveto
          39 71 172 110 99 vvcurveto
          73 -73 48 -91 -40 -45 -8 -5 -18 vhcurveto
          -2 -84 rlineto
          18 30 54 18 50 hhcurveto
          48 42 -12 -46 5 hvcurveto
          -56 -84 -158 -122 -66 vvcurveto
          -35 40 -49 25 -28 vhcurveto
          39 -184 rmoveto
          -1 5 0 5 1 7 1 13 1 17 3 27 -17 18 rcurveline
          -71 -15 rlineto
          -1 -5 0 -6 -7 vvcurveto
          -1 -12 -1 -20 -3 -25 18 -18 rcurveline
          endchar
        </CharString>
        <CharString name="questiondown">
          -168 190 222 rmoveto
          15 -23 23 -47 3 -16 rrcurveto
          -44 -67 -167 -118 -96 vvcurveto
          -73 71 -48 92 42 44 7 6 17 vhcurveto
          2 84 rlineto
          -18 -30 -51 -18 -53 hhcurveto
          -47 -43 10 48 -5 hvcurveto
          56 84 159 123 66 vvcurveto
          36 -42 50 -23 26 vhcurveto
          -39 184 rmoveto
          -1 -4 0 -6 -7 vvcurveto
          -1 -12 0 -18 -4 -27 18 -18 rcurveline
          71 15 -1 5 0 6 1 7 rlinecurve
          1 13 1 17 4 27 -18 18 rcurveline
          endchar
        </CharString>
        <CharString name="quotedbl">
          -167 149 679 rmoveto
          -94 hlineto
          20 -218 rlineto
          39 hlineto
          211 218 rmoveto
          -95 hlineto
          21 -218 rlineto
          39 hlineto
          endchar
        </CharString>
        <CharString name="quotedblbase">
          -174 12 -152 rmoveto
          64 67 58 84 5 80 -19 19 rcurveline
          -75 -16 rlineto
          1 -16 1 -16 -13 vvcurveto
          -62 -9 -50 -41 -62 vhcurveto
          164 -15 rmoveto
          64 67 58 84 5 80 -19 19 rcurveline
          -75 -16 rlineto
          1 -16 1 -16 -13 vvcurveto
          -62 -9 -50 -41 -62 vhcurveto
          endchar
        </CharString>
        <CharString name="quotedblleft">
          -188 177 759 rmoveto
          -64 -66 -60 -85 -3 -80 19 -19 rcurveline
          74 16 rlineto
          -1 16 -1 16 13 vvcurveto
          61 8 52 43 61 vhcurveto
          134 15 rmoveto
          -64 -67 -58 -84 -5 -80 19 -19 rcurveline
          74 16 rlineto
          16 -1 16 13 vvcurveto
          63 9 48 41 63 vhcurveto
          endchar
        </CharString>
        <CharString name="quotedblright">
          -196 60 509 rmoveto
          63 65 61 87 3 79 -19 19 rcurveline
          -74 -16 rlineto
          1 -16 1 -16 -13 vvcurveto
          -61 -8 -52 -43 -61 vhcurveto
          164 -15 rmoveto
          64 67 58 84 5 80 -19 19 rcurveline
          -74 -16 rlineto
          1 -16 1 -16 -13 vvcurveto
          -62 -10 -50 -41 -62 vhcurveto
          endchar
        </CharString>
        <CharString name="quoteleft">
          -336 177 759 rmoveto
          -64 -66 -60 -85 -3 -80 19 -19 rcurveline
          74 16 rlineto
          -1 16 -1 16 13 vvcurveto
          61 8 52 43 61 vhcurveto
          endchar
        </CharString>
        <CharString name="quoteright">
          -344 60 509 rmoveto
          63 65 61 87 3 79 -19 19 rcurveline
          -74 -16 rlineto
          1 -16 1 -16 -13 vvcurveto
          -61 -8 -52 -43 -61 vhcurveto
          endchar
        </CharString>
        <CharString name="quotesinglbase">
          -323 12 -152 rmoveto
          64 67 58 84 5 80 -19 19 rcurveline
          -75 -16 rlineto
          1 -16 1 -16 -13 vvcurveto
          -62 -9 -50 -41 -62 vhcurveto
          endchar
        </CharString>
        <CharString name="quotesingle">
          -344 149 679 rmoveto
          -94 hlineto
          20 -218 rlineto
          39 hlineto
          endchar
        </CharString>
        <CharString name="r">
          -180 335 438 rmoveto
          -76 -61 -95 -66 -42 hvcurveto
          -8 2 rlineto
          8 19 11 107 16 vvcurveto
          -16 17 -148 -30 2 -21 17 1 22 1 17 3 rlinecurve
          29 3 rlineto
          3 -19 3 -20 -71 vvcurveto
          -100 -6 -94 -15 -91 vhcurveto
          78 189 hlineto
          62 81 103 80 7 6 -1 -1 6 vhcurveto
          endchar
        </CharString>
        <CharString name="registered">
          24 171 361 rmoveto
          -22 vlineto
          3 24 16 1 11 hhcurveto
          12 11 -1 -1 7 hvcurveto
          13 -2 rlineto
          22 vlineto
          -27 9 rlineto
          8 3 42 28 vvcurveto
          8 14 1 1 7 hvcurveto
          66 -111 rlineto
          62 hlineto
          2 16 -35 12 -58 91 rlineto
          36 17 19 22 43 vvcurveto
          37 -26 35 -56 vhcurveto
          -27 -16 -3 -16 hhcurveto
          -30 hlineto
          -4 -4 0 1 -3 hvcurveto
          -21 vlineto
          27 -10 rlineto
          -15 -2 -49 -3 -62 vhcurveto
          -1 -24 -2 -31 -1 -35 rrcurveto
          47 226 rmoveto
          1 8 5 0 7 hhcurveto
          45 12 -30 -27 -44 -31 -21 -45 hvcurveto
          -5 hlineto
          -192 hmoveto
          -128 102 -102 128 126 104 102 128 128 -104 102 -126 -128 -102 -102 -128 vhcurveto
          27 -1 rmoveto
          110 91 92 111 110 92 -92 -110 -111 -92 -91 -110 -111 -91 91 111 vhcurveto
          endchar
        </CharString>
        <CharString name="ring">
          -220 149 711 rmoveto
          41 18 -38 -27 -40 -22 -24 -36 -42 -17 35 29 34 21 31 37 hvcurveto
          -99 -72 rmoveto
          -43 25 -43 67 59 50 45 59 44 -28 38 -63 -68 -42 -49 -51 vhcurveto
          endchar
        </CharString>
        <CharString name="ring.case">
          -179 239 913 rmoveto
          40 19 -38 -27 -40 -22 -24 -36 -40 -19 35 29 34 22 31 36 hvcurveto
          -99 -72 rmoveto
          -43 24 -43 68 58 51 45 59 43 -29 39 -62 -67 -43 -49 -51 vhcurveto
          endchar
        </CharString>
        <CharString name="s">
          -167 285 303 rmoveto
          21 hlineto
          3 125 rlineto
          7 -23 -24 3 -24 hhcurveto
          -68 -68 -25 -46 -32 hvcurveto
          -18 -61 4 -105 209 -40 12 -76 rlinecurve
          -26 -18 -47 -9 -42 hhcurveto
          -39 -39 8 9 -25 hvcurveto
          -6 61 rlineto
          -23 hlineto
          -3 -127 rlineto
          -7 25 27 -4 29 hhcurveto
          63 69 19 51 40 hvcurveto
          18 61 rlineto
          111 -205 45 -12 74 vhcurveto
          19 20 40 9 41 hhcurveto
          31 32 -5 -9 23 hvcurveto
          endchar
        </CharString>
        <CharString name="section">
          -72 138 579 rmoveto
          -27 -1 -8 -10 vvcurveto
          -87 65 -68 45 -61 vhcurveto
          66 -96 41 -61 -105 vvcurveto
          -64 -20 -54 -31 -48 vhcurveto
          -10 3 rlineto
          5 23 1 19 19 vvcurveto
          65 -53 67 -67 102 vhcurveto
          -43 67 -49 79 100 vvcurveto
          68 17 37 24 43 vhcurveto
          111 -744 rmoveto
          -48 -59 9 27 -61 hvcurveto
          -2 -75 rlineto
          -8 28 36 -3 24 hhcurveto
          156 94 174 136 136 -74 103 -88 115 hvcurveto
          -44 59 -27 42 40 vvcurveto
          23 9 22 8 9 vhcurveto
          49 59 -9 -27 60 hvcurveto
          2 75 rlineto
          7 -28 -35 4 -25 hhcurveto
          -141 -92 -165 -142 -126 49 -84 80 -104 hvcurveto
          61 -77 26 -49 -59 vvcurveto
          -21 -5 -20 -12 -12 vhcurveto
          endchar
        </CharString>
        <CharString name="semicolon">
          -287 154 346 rmoveto
          -1 5 0 5 1 7 1 13 1 17 4 27 -18 18 rcurveline
          -71 -15 rlineto
          -1 -5 0 -6 -7 vvcurveto
          -1 -12 -1 -20 -3 -25 18 -18 rcurveline
          -60 -482 rmoveto
          64 66 60 85 3 80 -19 19 rcurveline
          -74 -16 rlineto
          1 -16 1 -16 -13 vvcurveto
          -61 -8 -52 -43 -61 vhcurveto
          endchar
        </CharString>
        <CharString name="seven">
          -86 144 -14 rmoveto
          87 192 97 230 123 255 -12 16 rcurveline
          -375 hlineto
          -7 -48 -10 -50 -17 -61 27 -5 rcurveline
          48 93 286 10 -91 -189 -131 -226 -99 -178 rlinecurve
          endchar
        </CharString>
        <CharString name="six">
          -10 432 693 rmoveto
          -215 -80 -175 -164 -223 vvcurveto
          -149 84 -91 121 109 119 85 151 130 -89 53 -87 -65 -50 -15 -35 -48 vhcurveto
          48 145 128 105 133 63 rrcurveto
          -189 -315 rmoveto
          92 55 -55 -93 -139 -79 -44 -62 -72 -73 62 152 31 3 24 7 28 hvcurveto
          20 39 39 14 51 hhcurveto
          endchar
        </CharString>
        <CharString name="slash">
          -24 436 719 rmoveto
          -430 -893 rlineto
          54 hlineto
          430 893 rlineto
          endchar
        </CharString>
        <CharString name="space">
          -303 endchar
        </CharString>
        <CharString name="sterling">
          -42 135 79 rmoveto
          52 53 31 78 88 vvcurveto
          14 vlineto
          -1 31 30 -2 27 hhcurveto
          21 20 1 2 18 hvcurveto
          20 45 rlineto
          -5 -29 -67 -3 -74 hhcurveto
          -7 101 rlineto
          -1 15 -1 15 13 vvcurveto
          86 24 33 46 35 vhcurveto
          45 54 -14 -23 51 hvcurveto
          17 68 rlineto
          5 -27 -25 10 -43 hhcurveto
          -55 -46 -30 -48 -51 hvcurveto
          -40 -37 -32 -43 -53 vvcurveto
          -28 6 -49 5 -56 vhcurveto
          1 -28 -27 0 -28 hhcurveto
          -1 -21 87 -9 rlineto
          1 -25 2 -23 -24 vvcurveto
          -120 -31 -39 -87 -79 vhcurveto
          8 -20 rlineto
          22 hlineto
          34 36 274 -36 23 2 16 22 29 76 3 49 rlinecurve
          -21 3 -8 -33 -11 -29 -12 -19 rlinecurve
          endchar
        </CharString>
        <CharString name="t">
          -237 35 428 rmoveto
          -1 -21 59 -11 rlineto
          -5 -128 -7 -89 -60 vvcurveto
          -40 3 -37 9 -35 vhcurveto
          37 -17 37 10 51 27 35 27 rlinecurve
          -10 19 -27 -13 -39 -15 -19 -5 rlinecurve
          -11 29 0 53 39 vvcurveto
          34 2 95 8 97 vhcurveto
          -5 37 38 -3 32 hhcurveto
          2 56 -33 -3 -33 -2 -40 -1 rlinecurve
          4 57 4 53 7 41 -78 -21 rcurveline
          -48 -2 -43 -1 -40 vhcurveto
          endchar
        </CharString>
        <CharString name="thorn">
          -81 129 183 rmoveto
          114 4 117 81 58 hhcurveto
          21 -39 10 -48 -48 vvcurveto
          -102 -48 -102 -96 -23 -27 5 7 -20 vhcurveto
          13 265 rmoveto
          12 203 9 214 5 5 -16 17 rcurveline
          -148 -30 2 -21 56 4 29 4 -7 -332 -12 -324 -28 -305 rlinecurve
          17 -17 148 30 -2 21 -17 -1 -22 -3 -17 -1 rlinecurve
          -29 -3 5 215 rlineto
          -1 9 13 -1 15 hhcurveto
          127 116 150 155 43 -9 43 -19 40 hvcurveto
          -42 17 -75 -21 -56 -36 -56 -67 rlinecurve
          endchar
        </CharString>
        <CharString name="three">
          -38 441 253 rmoveto
          81 -54 67 -108 vhcurveto
          45 24 78 73 80 vvcurveto
          68 -48 47 -89 -97 -56 -49 -45 -48 vhcurveto
          19 -22 rlineto
          35 40 44 35 60 hhcurveto
          67 33 -43 -50 -102 -86 -52 -68 -22 hvcurveto
          -25 -8 8 -29 rlineto
          8 22 30 4 22 hhcurveto
          85 50 -45 -81 -133 -77 -57 -84 -51 -54 21 36 -43 hvcurveto
          -43 -67 rlineto
          -28 37 43 -11 48 hhcurveto
          140 160 112 153 hvcurveto
          endchar
        </CharString>
        <CharString name="threequarters">
          92 261 430 rmoveto
          42 -31 35 -52 3 vhcurveto
          25 14 37 27 45 vvcurveto
          41 -30 22 -44 -47 -34 -24 -24 -21 vhcurveto
          14 -16 rlineto
          17 20 20 14 27 hhcurveto
          31 13 -17 -24 -44 -34 -31 -36 -10 hvcurveto
          -13 -4 7 -21 rlineto
          4 11 10 2 10 hhcurveto
          43 21 -25 -39 -60 -37 -26 -43 -24 -21 13 19 -17 hvcurveto
          -28 -44 rlineto
          -15 17 22 -6 24 hhcurveto
          73 87 57 75 hvcurveto
          -169 -438 rmoveto
          490 680 -28 19 -490 -676 rlineto
          395 8 rmoveto
          -16 -1 -9 -2 -23 -1 rrcurveto
          -19 vlineto
          3 29 26 2 23 hhcurveto
          28 22 -2 -3 21 hvcurveto
          19 vlineto
          -16 2 rlineto
          -17 3 -15 1 49 3 1 2 34 vvcurveto
          44 hlineto
          12 34 -15 -2 -9 -1 -15 0 -16 -1 rlinecurve
          7 205 -18 8 -179 -225 -1 -18 rlineto
          139 hlineto
          6 161 rmoveto
          -5 -134 rlineto
          -1 -33 -37 -1 -33 hhcurveto
          endchar
        </CharString>
        <CharString name="threesuperior">
          -239 257 530 rmoveto
          42 -31 35 -52 3 vhcurveto
          25 14 37 27 45 vvcurveto
          41 -30 22 -44 -47 -34 -24 -24 -21 vhcurveto
          14 -16 rlineto
          17 20 20 14 27 hhcurveto
          31 13 -17 -24 -44 -34 -31 -36 -10 hvcurveto
          -13 -4 7 -21 rlineto
          4 11 10 2 10 hhcurveto
          43 21 -25 -39 -60 -37 -26 -43 -24 -21 13 19 -17 hvcurveto
          -28 -44 rlineto
          -15 17 22 -6 24 hhcurveto
          73 87 57 75 hvcurveto
          endchar
        </CharString>
        <CharString name="tilde">
          -83 295 572 rmoveto
          93 101 -15 15 -42 -36 -22 -20 -58 11 -39 18 -45 27 rlinecurve
          -29 hlineto
          -88 -97 14 -15 47 40 27 24 37 -29 32 -20 57 -19 rlinecurve
          endchar
        </CharString>
        <CharString name="tilde.case">
          -44 374 759 rmoveto
          93 101 -15 15 -13 -11 -17 -14 -12 -11 rlinecurve
          -22 -20 -58 11 -39 18 -45 27 rlinecurve
          -29 hlineto
          -88 -97 14 -15 47 40 27 24 35 -29 35 -21 56 -18 rlinecurve
          endchar
        </CharString>
        <CharString name="two">
          -44 339 514 rmoveto
          -185 -192 -157 -141 -153 vhcurveto
          9 -19 rlineto
          392 hlineto
          5 49 10 34 16 62 -28 4 rcurveline
          -41 -79 -275 -10 rlineto
          242 242 83 121 107 vvcurveto
          109 -81 54 -92 -69 -75 -31 -63 -45 vhcurveto
          18 -19 rlineto
          37 36 52 20 48 hhcurveto
          68 60 -38 -85 hvcurveto
          endchar
        </CharString>
        <CharString name="twosuperior">
          -228 192 667 rmoveto
          -92 -86 -82 -75 -77 vhcurveto
          6 -13 rlineto
          200 hlineto
          4 24 7 33 8 31 -18 4 rcurveline
          -11 -38 -9 -4 -23 -3 -101 -3 rcurveline
          124 122 30 53 53 vvcurveto
          57 -43 27 -44 -37 -38 -16 -32 -28 vhcurveto
          13 -16 rlineto
          19 20 28 12 23 hhcurveto
          28 22 -18 -41 hvcurveto
          endchar
        </CharString>
        <CharString name="u">
          -3 359 149 rmoveto
          -11 -49 -4 -50 -5 -43 17 -17 rcurveline
          24 87 28 27 40 hvcurveto
          -10 19 -32 -15 -30 -7 -21 -4 rlinecurve
          29 vlineto
          24 0 28 1 24 vhcurveto
          3 85 1 82 16 111 -18 17 rcurveline
          -147 -30 1 -21 19 1 20 1 17 3 rlinecurve
          30 3 -3 -156 rlineto
          -91 -134 -98 -64 vhcurveto
          -7 31 -3 35 36 vvcurveto
          87 16 97 8 85 vhcurveto
          -16 17 -148 -30 2 -21 17 1 22 1 16 3 rlinecurve
          30 3 rlineto
          1 -9 1 -10 -16 vvcurveto
          -16 -2 -22 -1 -35 vhcurveto
          -4 -56 -6 -57 -56 vvcurveto
          -39 3 -37 9 -35 vhcurveto
          37 -17 83 21 78 62 59 78 rlinecurve
          endchar
        </CharString>
        <CharString name="uacute">
          -3 359 149 rmoveto
          -11 -49 -4 -50 -5 -43 17 -17 rcurveline
          24 87 28 27 40 hvcurveto
          -10 19 -32 -15 -30 -7 -21 -4 rlinecurve
          29 vlineto
          24 0 28 1 24 vhcurveto
          3 85 1 82 16 111 -18 17 rcurveline
          -147 -30 1 -21 19 1 20 1 17 3 rlinecurve
          30 3 -3 -156 rlineto
          -91 -134 -98 -64 vhcurveto
          -7 31 -3 35 36 vvcurveto
          87 16 97 8 85 vhcurveto
          -16 17 -148 -30 2 -21 17 1 22 1 16 3 rlinecurve
          30 3 rlineto
          1 -9 1 -10 -16 vvcurveto
          -16 -2 -22 -1 -35 vhcurveto
          -4 -56 -6 -57 -56 vvcurveto
          -39 3 -37 9 -35 vhcurveto
          37 -17 83 21 78 62 59 78 rlinecurve
          -88 402 rmoveto
          161 158 -21 11 -21 13 -19 19 rlinecurve
          -123 -185 rlineto
          endchar
        </CharString>
        <CharString name="ucircumflex">
          -3 86 0 117 195 endchar
        </CharString>
        <CharString name="udieresis">
          -3 359 149 rmoveto
          -11 -49 -4 -50 -5 -43 17 -17 rcurveline
          24 87 28 27 40 hvcurveto
          -10 19 -32 -15 -30 -7 -21 -4 rlinecurve
          29 vlineto
          24 0 28 1 24 vhcurveto
          3 85 1 82 16 111 -18 17 rcurveline
          -147 -30 1 -21 19 1 20 1 17 3 rlinecurve
          30 3 -3 -156 rlineto
          -91 -134 -98 -64 vhcurveto
          -7 31 -3 35 36 vvcurveto
          87 16 97 8 85 vhcurveto
          -16 17 -148 -30 2 -21 17 1 22 1 16 3 rlinecurve
          30 3 rlineto
          1 -9 1 -10 -16 vvcurveto
          -16 -2 -22 -1 -35 vhcurveto
          -4 -56 -6 -57 -56 vvcurveto
          -39 3 -37 9 -35 vhcurveto
          37 -17 83 21 78 62 59 78 rlinecurve
          -110 432 rmoveto
          5 0 5 1 7 vhcurveto
          11 1 17 4 25 vhcurveto
          -16 17 -66 -14 rlineto
          -5 0 -6 -1 -6 vhcurveto
          -12 -2 -17 -3 -25 vhcurveto
          17 -16 rlineto
          218 14 rmoveto
          5 0 5 1 7 vhcurveto
          11 1 17 4 25 vhcurveto
          -17 17 -66 -14 rlineto
          -17 vlineto
          -1 -12 -1 -17 -3 -25 17 -16 rcurveline
          endchar
        </CharString>
        <CharString name="ugrave">
          -3 85 0 117 193 endchar
        </CharString>
        <CharString name="underscore">
          281 94 -196 rmoveto
          580 hlineto
          2 48 rlineto
          -580 hlineto
          endchar
        </CharString>
        <CharString name="uni00AD">
          -107 68 267 rmoveto
          -2 -57 rlineto
          276 hlineto
          2 57 rlineto
          endchar
        </CharString>
        <CharString name="v">
          -79 113 438 rmoveto
          -124 -33 2 -21 74 8 29 -151 35 -110 67 -141 rlinecurve
          36 11 86 156 rlineto
          74 135 25 63 53 vvcurveto
          11 -1 10 -1 9 vhcurveto
          -82 -22 rlineto
          3 -11 2 -12 -17 vvcurveto
          -47 -14 -71 -40 -87 vhcurveto
          -47 -100 rlineto
          -9 hlineto
          -15 35 -13 38 -13 39 -24 66 -20 91 -8 89 rrcurveto
          endchar
        </CharString>
        <CharString name="w">
          147 466 71 rmoveto
          -14 37 -13 38 -12 41 -21 68 -23 94 -5 89 -72 -19 rcurveline
          4 -31 5 -28 5 -29 -101 -260 rcurveline
          -9 hlineto
          -12 35 -11 38 -10 39 -19 66 -15 91 -5 89 -22 9 rcurveline
          -124 -33 2 -21 16 1 18 3 15 1 rlinecurve
          26 3 27 -169 31 -125 51 -108 rlinecurve
          37 11 121 260 28 -107 37 -92 33 -72 rlinecurve
          37 11 114 239 71 110 -16 88 rlinecurve
          -82 -22 rlineto
          4 -13 0 -14 -16 vvcurveto
          -71 -28 -95 -59 -136 vhcurveto
          endchar
        </CharString>
        <CharString name="x">
          -72 122 11 rmoveto
          13 vlineto
          50 23 32 54 67 vhcurveto
          3 3 94 -176 22 -10 52 13 46 23 27 21 rlinecurve
          -9 20 -29 -15 -31 -9 -19 -3 rlinecurve
          -104 194 30 36 rlineto
          52 62 52 33 64 vvcurveto
          9 vlineto
          -82 -22 rlineto
          -3 vlineto
          -55 -27 -48 -37 -44 vhcurveto
          -3 -4 -89 166 -22 10 -115 -37 3 -20 15 1 18 2 16 3 rlinecurve
          26 3 99 -185 -31 -36 rlineto
          -44 -55 -72 -51 -57 vvcurveto
          -5 1 -5 1 -6 vhcurveto
          endchar
        </CharString>
        <CharString name="y">
          -80 317 157 rmoveto
          75 136 24 61 54 vvcurveto
          11 1 10 -3 9 vhcurveto
          -82 -22 rlineto
          3 -11 2 -12 -17 vvcurveto
          -47 -14 -71 -40 -87 vhcurveto
          -47 -100 rlineto
          -9 hlineto
          -16 35 -14 38 -13 39 -24 66 -21 91 -5 89 -22 9 rcurveline
          -124 -33 2 -21 75 8 27 -169 52 -125 51 -108 rlinecurve
          -60 -98 -66 -50 -72 -41 46 -67 rcurveline
          70 48 63 121 56 98 rrcurveto
          endchar
        </CharString>
        <CharString name="yacute">
          -81 316 157 rmoveto
          75 136 24 61 54 vvcurveto
          11 1 10 -3 9 vhcurveto
          -82 -22 rlineto
          3 -11 2 -12 -17 vvcurveto
          -47 -14 -71 -40 -87 vhcurveto
          -47 -100 rlineto
          -9 hlineto
          -16 35 -14 38 -13 39 -24 66 -21 91 -5 89 -22 9 rcurveline
          -124 -33 2 -21 75 8 27 -169 52 -125 51 -108 rlinecurve
          -60 -98 -66 -50 -72 -41 46 -67 rcurveline
          70 48 63 121 56 98 rrcurveto
          -19 552 rmoveto
          161 158 -21 11 -21 13 -19 19 rlinecurve
          -123 -185 rlineto
          endchar
        </CharString>
        <CharString name="ydieresis">
          -81 316 157 rmoveto
          75 136 24 61 54 vvcurveto
          11 1 10 -3 9 vhcurveto
          -82 -22 rlineto
          3 -11 2 -12 -17 vvcurveto
          -47 -14 -71 -40 -87 vhcurveto
          -47 -100 rlineto
          -9 hlineto
          -16 35 -14 38 -13 39 -24 66 -21 91 -5 89 -22 9 rcurveline
          -124 -33 2 -21 75 8 27 -169 52 -125 51 -108 rlinecurve
          -60 -98 -66 -50 -72 -41 46 -67 rcurveline
          70 48 63 121 56 98 rrcurveto
          -18 582 rmoveto
          5 0 5 1 7 vhcurveto
          11 1 17 4 25 vhcurveto
          -16 17 -66 -14 rlineto
          -5 0 -6 -1 -6 vhcurveto
          -12 -2 -17 -3 -25 vhcurveto
          17 -16 rlineto
          218 14 rmoveto
          5 0 5 1 7 vhcurveto
          11 1 17 4 25 vhcurveto
          -17 17 -66 -14 rlineto
          -17 vlineto
          -1 -12 -1 -17 -3 -25 17 -16 rcurveline
          endchar
        </CharString>
        <CharString name="yen">
          178 615 644 rmoveto
          24 1 18 1 27 4 rrcurveto
          28 vlineto
          -5 -49 -38 -2 -32 hhcurveto
          -32 -24 2 1 -16 hvcurveto
          -24 4 rlineto
          -28 vlineto
          73 -21 -165 -289 rlineto
          -8 hlineto
          -172 304 23 3 16 0 34 3 rlinecurve
          28 vlineto
          -5 -48 -40 -2 -35 hhcurveto
          -35 -25 2 1 -20 hvcurveto
          -11 1 -9 2 -8 1 rrcurveto
          -28 vlineto
          83 -21 127 -219 rlineto
          -123 hlineto
          -2 -50 44 4 51 3 53 3 rlinecurve
          38 -66 rlineto
          -188 hlineto
          -2 -50 57 5 69 3 68 3 rlinecurve
          -5 -231 rlineto
          -23 -16 -3 -3 -34 hvcurveto
          -28 vlineto
          5 48 40 2 33 hhcurveto
          32 25 -3 -1 17 hvcurveto
          26 -3 rlineto
          28 vlineto
          -71 22 7 217 137 3 rlineto
          57 hlineto
          2 34 rlineto
          -191 hlineto
          45 70 rlineto
          1 43 35 0 27 hhcurveto
          16 14 0 1 13 hvcurveto
          1 34 rlineto
          -126 hlineto
          endchar
        </CharString>
        <CharString name="z">
          -122 58 302 rmoveto
          22 hlineto
          15 69 rlineto
          -1 28 27 -1 28 hhcurveto
          33 34 3 5 44 hvcurveto
          -277 -363 28 -24 23 29 269 -27 11 50 1 23 16 63 rlinecurve
          -24 hlineto
          -26 -65 -207 6 265 349 -10 20 rlineto
          -5 -39 -49 -3 -51 hhcurveto
          -55 -53 3 5 -48 hvcurveto
          endchar
        </CharString>
        <CharString name="zero">
          45 289 657 rmoveto
          32 126 -13 -269 -128 -16 -225 -143 -132 -34 206 128 106 23 195 144 hvcurveto
          -238 -334 rmoveto
          -169 65 -168 167 177 61 251 152 147 -72 157 -149 -181 -68 -196 -174 vhcurveto
          endchar
        </CharString>
</ttFont>
